<?xml version="1.0" encoding="UTF-8" standalone="no"?>
<svg
   id="logo-svg"
   viewBox="0 0 4780.23 2241.87"
   version="1.1"
   sodipodi:docname="logo-gray.svg"
   inkscape:version="1.3.2 (091e20e, 2023-11-25)"
   xmlns:inkscape="http://www.inkscape.org/namespaces/inkscape"
   xmlns:sodipodi="http://sodipodi.sourceforge.net/DTD/sodipodi-0.dtd"
   xmlns="http://www.w3.org/2000/svg"
   xmlns:svg="http://www.w3.org/2000/svg">
  <sodipodi:namedview
     id="namedview27"
     pagecolor="#505050"
     bordercolor="#ffffff"
     borderopacity="1"
     inkscape:showpageshadow="0"
     inkscape:pageopacity="0"
     inkscape:pagecheckerboard="1"
     inkscape:deskcolor="#505050"
     inkscape:zoom="0.08656021"
     inkscape:cx="3367.5981"
     inkscape:cy="2200.7802"
     inkscape:window-width="1664"
     inkscape:window-height="1050"
     inkscape:window-x="0"
     inkscape:window-y="0"
     inkscape:window-maximized="0"
     inkscape:current-layer="logo-egg" />
  <defs
     id="defs1">
    <style
       id="style1">
			.cls-1,
			.cls-4 {
				fill: #643219;
			}

			.cls-1,
			.cls-2,
			.cls-3 {
				stroke: #643219;
			}

			.cls-1 {
				stroke-miterlimit: 10;
			}

			.cls-1,
			.cls-2,
			.cls-3,
			.cls-5 {
				stroke-width: 50px;
			}

			.cls-1,
			.cls-2,
			.cls-3,
			.cls-5,
			.cls-6,
			.cls-8 {
				fill-rule: evenodd;
			}

			.cls-2,
			.cls-3 {
				fill: #fff3e4;
			}

			.cls-2 {
				stroke-linecap: round;
			}

			.cls-2,
			.cls-3,
			.cls-5 {
				stroke-linejoin: round;
			}

			.cls-4 {
				font-size: 128px;
				font-family: Arial-Black, Arial;
				font-weight: 800;
			}

			.cls-5 {
				fill: #fff;
				stroke: #643219;
			}

			.cls-6 {
				fill: #f99f43;
			}

			.cls-7 {
				fill: #df8029;
			}

			.cls-8 {
				fill: #fbeab7;
			}

			.eggyolk {
				transform-origin: 35% 70%;
				animation: yolkwobble infinite ease-in-out alternate 160ms;
			}
			
			.eggwhite {
				transform-origin: 35% 70%;
				animation: eggwobble infinite ease-in-out alternate 140ms;
			}
			
			@keyframes eggwobble {
				0% { transform: skew(1deg, 1deg) }
				50% { transform: skew(2deg, -2deg) }
				100% { transform: skew(-1deg, 0deg) }
			}
			
			@keyframes yolkwobble {
				0% { transform: skew(3deg, 4deg); }
				50% { transform: skew(6deg, -5deg); }
				100% { transform: skew(-3deg, 2deg); }
			}
		</style>
  </defs>
  <g
     id="shadow">
    <g
       id="shell"
       style="fill:#022741;fill-opacity:1;stroke:#022741;stroke-opacity:1">
      <path
         class="cls-1"
         d="M3896.16,539.9c-32.83,61.12-85.61,466.67-36.63,699.75,49.2,233.78,184.16,426.93,371.12,364.76,117.67-38.39,228.07-157.88,302.8-269.63,74.46-112.72,113.24-217.69,81.74-249.5-34.72-34.8-129.59,22.65-214.64,92.4-85.24,69.18-160.67,150.65-160.68,150.6.16.68,88.84-158.73,161.12-343.78,71.66-187.18,126.93-400,46.1-555.4-46.15-88.88-160.53-110.07-274.66-83.24C4058.19,372.3,3944.19,446.74,3896.16,539.9Z"
         transform="translate(-362.6 -224.86)"
         id="path1"
         style="fill:#022741;fill-opacity:1;stroke:#022741;stroke-opacity:1" />
      <path
         class="cls-1"
         d="M3350.2,479.47c-38.89,58.72-130.93,387.69-105.13,647.24C3271,1386,3404.3,1737.62,3639.59,1703.77c119.26-16.77,221.86-115.93,288.84-218.34,66.81-103,98-209.24,70.63-253.71-61.08-99-391.34,174.52-390.54,175.6.17.88,107.88-166,201.29-361.85,92.85-197.31,171.39-423.63,100.4-574.89C3817.41,271.81,3464.12,301.66,3350.2,479.47Z"
         transform="translate(-362.6 -224.86)"
         id="path2"
         style="fill:#022741;fill-opacity:1;stroke:#022741;stroke-opacity:1" />
      <path
         class="cls-1"
         d="M1312.14,379.92C1171.2,376,1013.82,484.84,974.76,631c-43,160.76,19.94,284.6,92.17,373.1,72.47,87.68,154.25,140,154.51,139,.12-.34-150.89-97.14-179.84-94-33.92,4.58-166.68,66.48-154.83,115.69,16.44,72.85,59.58,164.7,129.5,250,70,84.76,166.87,163,293.78,196,230.08,60.74,394.82-48.93,401.55-322.63,7.31-294.69-183.84-410.53-243.88-454.87-63.92-48-110.74-76.09-110.72-76.12.16-.42,176.59,94.05,216.35,84,30.84-7.63,100.05-113.1,94.68-154.14C1653.92,577.33,1474.52,383.91,1312.14,379.92Z"
         transform="translate(-362.6 -224.86)"
         id="path3"
         style="fill:#022741;fill-opacity:1;stroke:#022741;stroke-opacity:1" />
      <path
         class="cls-1"
         d="M1641.62,464.47c-40.23,47.23-35.68,315.65-19.9,530.15,16.2,213.3,105.3,606.34,139.13,636.66,34.26,30,240.25,104.28,268.39,60.4,18.24-27.77,29.75-439.86,29.84-440,0,0,13.07,411.64,30.51,446.64,26.58,54.66,234.76,13.3,261.68-3.31,26.49-14.85,97.75-281.36,123.14-535,25-253.15,50.47-625.94,15-676.93-35.27-51.09-380.66-91.44-406.9-28.38-16,38.51-33,391.43-32.9,391.25,0,0-8.22-354.51-23.37-400.13C2011.6,401.74,1681.58,418.15,1641.62,464.47Z"
         transform="translate(-362.6 -224.86)"
         id="path4"
         style="fill:#022741;fill-opacity:1;stroke:#022741;stroke-opacity:1" />
      <path
         class="cls-1"
         d="M2872,356.21c-137.33,2.29-268.64,129.36-355.82,304.19-87.46,175.14-130.81,398-98.74,599.34,51.95,322.19,269.11,537.56,496.52,513.63,178.43-18.92,299.51-152,370.23-286.69,70.58-135.37,90.8-272.39,64.26-314.15-42.21-64.69-397.25-.87-397.1-2.24-.11,1.4,343.77-66.59,385.81-122.2,31.11-40-25.28-243.54-64-281.93-46.33-45.32-305.51-2.77-305.41-3.08-.08.71,345.19-46.2,387.43-99.18C3386.76,627.06,3127.6,353.21,2872,356.21Z"
         transform="translate(-362.6 -224.86)"
         id="path5"
         style="fill:#022741;fill-opacity:1;stroke:#022741;stroke-opacity:1" />
    </g>
    <g
       id="shockers">
      <path
         class="cls-1"
         d="M4761,2323.17c108.37-17.15,231.87-123.45,267.28-246.7,78.53-270.88-189.58-341.06-189.89-341.62.05.1,122.63,37.51,146.4,27.9,27.63-11.19,140.26-97.86,132.68-135.89-21.84-109.32-133-249.56-349.08-223.89-196,23.46-331.39,140-331.29,335.41.07,210.3,154.6,270,202.24,291.39,51.06,23.09,118.46,42.28,118.46,42.27.09.17-158.86-45-178.63-32.48-23,14.77-102.21,89.86-97.21,117.86C4495.34,2232.1,4636.4,2343.11,4761,2323.17Z"
         transform="translate(-362.6 -224.86)"
         id="path6"
         style="stroke:#022741;stroke-opacity:1;fill:#022741;fill-opacity:1" />
      <path
         class="cls-1"
         d="M4444.12,1939.74c-.08,0,142.48-48.78,139.7-274.06-3.25-285.64-481.39-263.94-556.51-200.65-76.12,62.58-168.33,793-133.8,825.78,34.85,33.33,268.74,62.92,305.89,24,37.28-38.56,13.72-286.44,13.62-286.53.18.18,61.34,267.71,106.81,294.59,33.5,20.06,263.68-29.85,292-73.28C4642.61,2204.09,4444.7,1940.52,4444.12,1939.74Zm-176.71-212.09c-9.14,61.9-36.88,100.15-36.87,100.15q12.75-99.78,25.62-199.48S4276.63,1665.18,4267.41,1727.65Z"
         transform="translate(-362.6 -224.86)"
         id="path7"
         style="stroke:#022741;stroke-opacity:1;fill:#022741;fill-opacity:1" />
      <path
         class="cls-1"
         d="M3660.25,2369.93c-210.63,13.78-416-317.71-377.72-598,31.14-224.29,206.71-374.71,397-373.46,298.74,2.36,400.48,314.92,356.66,377-34.84,50.06-320.63,33.38-320.7,33.18.05.17,277.36,20.33,310.38,53.89,24.5,25-22.61,170.51-53.22,199.76-36.87,35.21-241.08,23.88-241.13,23.74,0,.09,176.37,15,209,47.92C3964.21,2157.87,3856.25,2357.33,3660.25,2369.93Z"
         transform="translate(-362.6 -224.86)"
         id="path8"
         style="stroke:#022741;stroke-opacity:1;fill:#022741;fill-opacity:1" />
      <path
         class="cls-1"
         d="M2894.17,1465.08c-70.19,76.25-37.94,739.3,34.45,820.58,33.37,37.26,214.27,76.36,249.73,51,37.72-26.71-23.63-264.51-23.78-264.56.12,0,56.77,232.58,89.1,258,35.14,27.82,279.8-19.16,300.79-62.79,25-50.17-208.88-346.77-208.67-399.84.06-41.14,227.81-344.26,189.43-392.11-42-51.85-259.3-74.45-289.54-57.55-36.83,20.5-87.46,275.58-87.36,275.6-.13,0,53.66-269.68,20.3-281.34S2927.55,1428.72,2894.17,1465.08Z"
         transform="translate(-362.6 -224.86)"
         id="path9"
         style="stroke:#022741;stroke-opacity:1;fill:#022741;fill-opacity:1" />
      <path
         class="cls-1"
         d="M2642.56,1408c-219.26-11.28-413.25,347.87-360.12,625.55,42.07,222.5,212.41,364.29,396,353.6C2993,2368.26,3042,1973.36,3024.5,1900c-14.64-60.82-325.34-16.9-325.21-17.08-.07,0-39.9,208.7-38.08,181.72,8.27-128,7.67-240-6.54-351.79-5.31-42,22.57,140.74,50.11,146.62S2993.12,1872,3014,1835.61C3032.43,1804.29,2918.7,1422.7,2642.56,1408Z"
         transform="translate(-362.6 -224.86)"
         id="path10"
         style="stroke:#022741;stroke-opacity:1;fill:#022741;fill-opacity:1" />
      <path
         class="cls-1"
         d="M718.77,2312.05c108.36,8,230.44-71.86,264.35-191.43,75.38-264.16-193-383.94-193.43-383.52.07-.06,123,59.38,146.66,54,27.53-6.21,139.25-75.79,131.37-116.65C1045,1557.21,933.3,1397.17,717.25,1393.15c-196-3.68-331.37,90.41-329.64,279.18,1.89,203.15,157.72,291.16,205.64,322.08,51.44,32.85,119.17,65.79,119.16,65.79s-159.66-76.73-179.38-68c-22.9,10.15-101.52,67.51-96.17,95.61C451.16,2162.53,594.21,2302.7,718.77,2312.05Z"
         transform="translate(-362.6 -224.86)"
         id="path11"
         style="fill:#022741;fill-opacity:1;stroke:#022741;stroke-opacity:1" />
      <path
         class="cls-1"
         d="M1630.7,2265.68c31.48-33.75,30.15-230.06,19.15-386-10.8-156.12-82.29-433.57-111.15-450.83-28.61-17.45-202-50.42-225.08-18.45-15.14,21-17.1,354.84-17,354.8s-18.33-332.18-33.44-355.08c-23.12-35-196.17,4.56-217.86,15.66-21.89,11.33-73.29,192.07-85.37,361.09-12.27,169.26-19.22,416.7,10.09,451.72s298,71.85,317.39,28.6c11.69-26,22.27-221.83,22.3-221.86s9.23,197.15,21.61,229C1343.28,2305.3,1599.1,2299.76,1630.7,2265.68Z"
         transform="translate(-362.6 -224.86)"
         id="path12"
         style="fill:#022741;fill-opacity:1;stroke:#022741;stroke-opacity:1" />
      <path
         class="cls-1"
         d="M2309.29,1263.82c281.08,79.28,84.22,360.39,103.94,500.83,19.34,140.61,212,270.77,114.49,410.87-74.7,108-193.26,44.09-330.4,98.15-136.94,53.81-130.87,199.79-341.52,161.84-175-31.94-180.55-284.37-223.3-377-48.52-106.22-262.17-218.53-184-389.11,78.8-171.1,204.74-141,304.08-177.06C1856.53,1454.64,1988.74,1174.37,2309.29,1263.82Z"
         transform="translate(-362.6 -224.86)"
         id="path13"
         style="fill:#022741;fill-opacity:1;stroke:#022741;stroke-opacity:1" />
    </g>
  </g>
  <g
     id="face">
    <g
       id="shell-2"
       data-name="shell"
       style="display:inline;fill:#09c9d8;fill-opacity:1">
      <path
         class="cls-2"
         d="m 3906.5,443.07 c -33.23,51.48 -88.54,394.36 -41.1,604.1 47.69,209.83 181.17,410.73 370.08,412.23 236.62,1.79 452.92,-306.75 390.2,-389.21 -71.45,-91.83 -380.67,132.93 -379.58,133.59 0.07,-0.09 90.3,-124.22 163.6,-287 72.8,-162.94 128.68,-364.59 48.38,-522.24 -92.15,-180.87 -454.91,-105.63 -551.58,48.53 z"
         transform="translate(-362.6,-224.86)"
         id="path14"
         style="fill:#09c9d8;fill-opacity:1;stroke:#022741;stroke-opacity:1" />
      <path
         class="cls-2"
         d="m 3361,360.35 c -39.21,47.39 -132.3,313.06 -107.53,526.91 25,214 155.4,511.45 389.58,523 236.62,11.88 415.27,-257.16 361.92,-346.27 -60.76,-99.25 -392.1,89.63 -391.09,90.4 0.1,-0.09 108.5,-124.72 203,-282.7 94,-158.15 174.1,-349.65 104,-487.75 C 3829.56,203.23 3475.72,218.23 3361,360.35 Z"
         transform="translate(-362.6,-224.86)"
         id="path15"
         style="fill:#09c9d8;fill-opacity:1;stroke:#022741;stroke-opacity:1" />
      <path
         class="cls-2"
         d="m 1322.84,325.77 c -140.87,6.53 -297.61,124 -336.5,274.43 -84.41,330.9 250.66,441.04 249.66,441.8 0.14,-0.17 -152.22,-57.45 -181.43,-47.49 -34.06,11.2 -168.3,110.57 -156.47,158.87 33.76,138.65 173.76,317.8 429.36,302.33 232.13,-13.78 395.39,-139.92 400.47,-376.21 5.48,-254.38 -186.33,-331.66 -246.73,-363.42 -64.2,-34.29 -111.27,-53.49 -111.2,-53.5 0.17,-0.21 177.33,60.81 217,47.17 30.79,-10.82 99.29,-109.46 93.67,-144.06 -14.83,-92.23 -195.49,-247.81 -357.83,-239.92 z"
         transform="translate(-362.6,-224.86)"
         id="path16"
         style="fill:#09c9d8;fill-opacity:1;stroke:#022741;stroke-opacity:1" />
      <path
         class="cls-2"
         d="m 1652.8,375.54 c -39.92,43.43 -33.65,277.25 -16.51,462.19 17.58,184.9 109.11,510.46 143,529.45 34.48,18.55 239.87,48.34 267.49,9.13 17.94,-25.88 27.25,-370.29 27.35,-370.3 0.1,-0.01 15.13,341.31 32.62,368.21 26.72,40.8 232.91,-13.6 259.5,-27.56 26.16,-14.35 96,-235.51 120.74,-442.09 24.29,-206.63 49.06,-509.37 13.47,-550.22 -35.32,-41.75 -381,-65.81 -406.91,-11.47 -15.83,32.33 -31,326.47 -30.94,326.46 0.06,-0.01 -10,-294.12 -25.38,-331.45 -14.83,-36.89 -344.79,-6.62 -384.43,37.65 z"
         transform="translate(-362.6,-224.86)"
         id="path17"
         style="fill:#09c9d8;fill-opacity:1;stroke:#022741;stroke-opacity:1" />
      <path
         class="cls-2"
         d="m 2883.13,249.88 c -137.48,1.07 -268.82,104.33 -355.5,248 -87,143.62 -129.4,327.6 -97,490.1 52.73,260.29 267.83,422.43 492.62,410.34 351.92,-18.48 484.59,-393.25 433,-466.37 -41.83,-59 -395.28,-22.32 -395,-21.43 -0.19,-0.83 342.08,-41 384.34,-82.05 31.18,-31.08 -24.12,-202.53 -62.61,-235.5 -46.08,-40.22 -304.82,-12.75 -304.69,-12.28 -0.07,-0.35 222.89,-30.13 265,-71.2 31.18,-30.09 -104.59,-261.56 -360.16,-259.61 z"
         transform="translate(-362.6,-224.86)"
         id="path18"
         style="fill:#09c9d8;fill-opacity:1;stroke:#022741;stroke-opacity:1" />
    </g>
    <g
       id="shockers-2"
       data-name="shockers"
       style="display:inline;fill:#09c9d8;fill-opacity:1;stroke:#022741;stroke-opacity:1">
      <path
         class="cls-2"
         d="m 4777.43,2267.9 c 108.89,-4.21 230.23,-94.81 261.92,-214.68 70.17,-264.53 -200,-361.52 -200.24,-361.17 0,-0.08 123.67,48.85 147.17,41.82 27.35,-8.36 137.23,-84 128.42,-123.18 -25.33,-112.49 -140,-262.87 -354.14,-252.91 -194.29,9.17 -326.71,114.46 -322.53,304.6 4.47,204.62 160.97,276.62 209.34,302.54 51.84,27.57 120.07,53.58 120.07,53.59 0,0.01 -160.72,-60.44 -180.24,-49.63 -22.71,12.38 -100.57,78.69 -94.93,106.51 15.06,73.95 159.94,197.19 285.16,192.51 z"
         transform="translate(-362.6,-224.86)"
         id="path19"
         style="fill:#09c9d8;fill-opacity:1;stroke:#022741;stroke-opacity:1" />
      <path
         class="cls-2"
         d="m 4449.42,1859.35 c 0,-0.1 141.77,-35.66 133.6,-257 -10.15,-282.26 -485,-287.32 -559,-229 -74.58,57 -156.64,751.65 -121.5,785 35.54,33.55 271.86,79.51 308.59,45.49 36.81,-34.31 8.35,-276.32 8.29,-276.32 0.11,0 66.75,264 113.24,294.51 34.22,22.11 265.18,-3.83 292.59,-43.33 29.56,-42.7 -175.45,-319.55 -175.81,-319.35 z m -181.25,-219.2 c -7.94,59.38 -35,94.53 -35,94.53 q 10.9,-95.72 21.88,-191.43 c 0,0 21.14,36.97 13.12,96.9 z"
         transform="translate(-362.6,-224.86)"
         id="path20"
         style="fill:#09c9d8;fill-opacity:1;stroke:#022741;stroke-opacity:1" />
      <path
         class="cls-2"
         d="m 3668.49,2220.43 c -212.64,1.37 -421.64,-317.59 -384.71,-581.73 29.84,-211.48 203.58,-350.56 392.94,-343.11 297.13,11.93 403.78,319.42 361.07,376.53 -34,45.56 -320.38,15.37 -320.43,15.76 0,-0.37 277.86,32.51 311.51,67.37 25,25.51 -19.9,162.62 -50.22,188.76 -36.49,31.17 -241.81,9 -241.84,9.25 0,-0.15 177.33,23.6 210.63,57.56 24.26,24.81 -81.34,208.32 -278.95,209.61 z"
         transform="translate(-362.6,-224.86)"
         id="path21"
         style="fill:#09c9d8;fill-opacity:1;stroke:#022741;stroke-opacity:1" />
      <path
         class="cls-2"
         d="m 2894.7,1343.39 c -69.82,71.67 -37.11,697.35 36.14,774.75 33.63,35.18 216.1,75.2 251.71,52.35 37.81,-24.38 -25.2,-250.69 -25.3,-250.68 0.07,0 58.27,221.12 91.07,246.16 35.6,26.77 281.79,-8.69 302.41,-48.81 24.36,-47.35 -213.11,-337.16 -213,-386.7 0,-39 225,-320 186,-366.58 -42.41,-50.8 -258.92,-77 -288.94,-61.27 -36.51,18.77 -85.77,259.1 -85.7,259.11 -0.08,0 52.19,-254.08 18.86,-265.63 -33.35,-11.77 -239.95,12.91 -273.25,47.3 z"
         transform="translate(-362.6,-224.86)"
         id="path22"
         style="fill:#09c9d8;fill-opacity:1;stroke:#022741;stroke-opacity:1" />
      <path
         class="cls-2"
         d="m 2644,1289.35 c -217.92,-10.18 -413.55,333.74 -362.26,595.45 40.78,209.57 211.92,339.14 397.1,328.39 317.46,-18 365.09,-387.86 347.24,-458 -14.86,-58.31 -325.94,-18.27 -325.86,-17.8 0,0 -40.18,197.06 -38.36,171.6 8.45,-120.86 7.93,-226.5 -6.15,-331.93 -5.27,-39.61 22.42,132.7 50,138.19 27.65,5.13 288.83,12.61 309.63,-21 18.2,-29.25 -96.67,-391.91 -371.34,-404.9 z"
         transform="translate(-362.6,-224.86)"
         id="path23"
         style="fill:#09c9d8;fill-opacity:1;stroke:#022741;stroke-opacity:1" />
      <path
         class="cls-3"
         d="m 704.45,2259.38 c 109.11,-5.07 234.2,-96.6 271,-216.67 81.48,-265 -184.34,-360 -184.6,-359.7 0,-0.07 121.54,48 145.36,40.8 27.72,-8.56 141,-85 133.92,-124 -20.31,-112.26 -128.07,-261.86 -342.73,-250.55 -194.76,10.39 -332.16,116.6 -336.46,306.86 -4.62,204.7 148.91,275.63 196.18,301.22 50.67,27.18 129.31,52.54 129.3,52.56 -0.01,0.02 -169.67,-59.14 -189.67,-48.17 -23.25,12.56 -104,79.48 -99.52,107.28 11.93,73.86 151.77,196.04 277.22,190.37 z"
         transform="translate(-362.6,-224.86)"
         id="path24"
         style="fill:#09c9d8;fill-opacity:1;stroke:#022741;stroke-opacity:1" />
      <path
         class="cls-2"
         d="m 1624.24,2132.82 c 32.19,-34.29 33.53,-222 24.66,-370.71 -8.87,-148.71 -76.18,-411.16 -104.59,-426.55 -28.26,-15.58 -200.33,-39.1 -223.82,-6.9 -15.4,21 -23.42,343.72 -23.39,343.72 0.03,0 -12.25,-320 -26.87,-341.32 -22.35,-32.82 -195.32,15.42 -217.18,27.87 -22,12.27 -77.14,192.12 -93.17,358.8 -16.03,166.68 -29.09,410.43 -0.4,441.87 28.75,31.05 298.65,42.07 319,-0.78 12.29,-26.15 26.57,-216.45 26.59,-216.45 0.02,0 5.61,190 17.5,219.84 11.51,28.5 269.43,4.55 301.67,-29.39 z"
         transform="translate(-362.6,-224.86)"
         id="path25"
         style="fill:#09c9d8;fill-opacity:1;stroke:#022741;stroke-opacity:1" />
    </g>
  </g>
  <text
     class="cls-4"
     transform="translate(4539.16 2167.02)"
     id="text25"
     style="fill:#022741;fill-opacity:1">TM</text>
  <g
     id="logo-egg"
     style="stroke:#022741;stroke-opacity:1">
    <g
       class="eggwhite"
       id="g25"
       style="stroke:#022741;stroke-opacity:1;fill:#c0c0c0;fill-opacity:1">
      <path
         id="white"
         class="cls-5"
         d="M2317.35,1209.12c275.33,74.63,79.48,339.67,96.84,472.19s210.3,254.45,111.27,386.81c-76.42,102.14-195.82,42.57-335.56,95.19s-137.17,190.62-351.06,159.09c-177.72-26.2-174.2-266.79-214-354.5-45.47-100.29-254.52-204.6-169.19-369.46s208.5-136.63,308.06-171.59C1868.41,1390.1,2004.93,1124.43,2317.35,1209.12Z"
         transform="translate(-362.6 -224.86)"
         style="stroke:#022741;stroke-opacity:1;fill:#c0c0c0;fill-opacity:1" />
    </g>
    <g
       id="g2"
       transform="matrix(0.7483727,0,0,0.7483727,-125.3064,-1223.1839)"
       style="display:inline">
      <g
         id="g34"
         transform="matrix(1.3362314,0,0,1.3362314,167.4575,1634.4374)"
         style="display:inline">
        <g
           id="g33">
          <g
             id="g32">
            <ellipse
               style="fill:#c0c0c0;fill-opacity:1;stroke:#022741;stroke-width:0.294995;stroke-opacity:0"
               id="path3-3"
               cx="629.05133"
               cy="581.97443"
               rx="250.5401"
               ry="257.19162"
               transform="translate(1029.1446,943.80164)"
               inkscape:label="yolk fill" />
            <path
               d="m 1647.9755,1306.9564 c -1.9856,-0.028 -4.0013,0.084 -5.9633,0.084 -1.2296,0 -2.5427,-0.1114 -3.7681,0 -1.0732,0.098 -2.5182,0.3957 -3.5703,0.3957 -6.7103,0 -13.4482,-0.5154 -19.6375,2.5792 -0.4504,0.2252 -0.9568,0.3363 -1.3886,0.5954 -0.8996,0.5398 -1.9085,2.1606 -2.5024,3.0594 -2.6648,-0.3941 -5.8809,-0.039 -8.4216,0.3841 -1.831,0.3052 -3.8059,0.113 -5.6502,0.3765 -1.5003,0.2143 -3.0231,0.5032 -4.521,0.7528 -0.9016,0.1503 -1.7321,0.6236 -2.6369,0.7529 -0.4972,0.071 -1.0074,-0.062 -1.5057,0 -1.8222,0.2278 -3.4927,1.2107 -5.2738,1.5076 -1.6425,0.2737 -3.2874,0.3504 -4.8974,0.7528 -0.6938,0.1735 -1.5817,-0.2256 -2.2585,0 -0.1685,0.056 -0.208,0.3203 -0.3765,0.3765 -0.452,0.1506 -1.0556,-0.1507 -1.5076,0 -2.1998,0.7332 -4.5245,1.5088 -6.7795,2.2604 -2.1949,0.7317 -4.6016,0.78 -6.7795,1.5057 -0.5327,0.1776 -0.9819,0.5577 -1.5076,0.7548 -0.9695,0.3635 -2.0179,0.4684 -3.0134,0.7529 -2.6786,0.7653 -5.2732,1.7577 -7.9107,2.6369 -1.465,0.4883 -3.0338,0.7049 -4.519,1.1293 -1.1443,0.3269 -2.2574,1.2811 -3.3898,1.5076 -1.4633,0.2926 -3.0832,0.5131 -4.5209,1.1293 -0.4161,0.1783 -0.7132,0.5745 -1.1293,0.7528 -0.4758,0.2039 -1.0229,0.1947 -1.5076,0.3764 -2.7807,1.0428 -5.552,2.1769 -8.2852,3.3917 -1.6652,0.7401 -2.9843,1.713 -4.521,2.635 -3.3603,2.0162 -6.8596,3.8992 -10.1692,6.0266 -2.3646,1.5201 -4.6777,3.1855 -7.1579,4.521 -3.3463,1.8019 -6.8706,3.3496 -10.1693,5.2738 -3.4806,2.0304 -6.7662,4.2762 -10.1692,6.4031 -4.916,3.0725 -9.3512,5.1412 -12.0533,10.5457 -3.424,6.8479 -3.4665,14.7583 -2.6369,22.2245 0.2758,2.4826 0.1847,5.041 0.3764,7.5323 0.396,5.1487 1.5775,10.3206 2.2605,15.4431 1.4965,11.2241 1.1292,22.5922 1.1292,33.9014 v 6.2437 c -0.8073,0.023 -1.616,0.067 -2.4198,0 -1.0299,-0.086 -2.4583,-0.6058 -2.4583,-0.4091 0,0.1931 0.5162,0.2484 0.409,0.4091 -0.2731,0.4097 -0.8585,0.4958 -1.2291,0.82 -1.7442,1.5262 -3.3712,3.1894 -4.9166,4.9166 -7.6157,8.5117 -14.6792,17.6249 -20.4864,27.4522 -2.0325,3.4397 -4.1526,7.0516 -4.9166,11.0623 -1.335,7.0087 -0.8201,15.8053 -0.8201,22.9428 0,10.8818 0.6266,21.5424 4.0985,31.9578 0.6575,1.9726 3.3136,7.4121 4.9166,9.015 0.2159,0.216 0.6022,0.1932 0.8181,0.4091 0.8777,0.8777 1.3529,2.6429 2.0492,3.6875 0.399,0.5985 1.9511,1.0513 2.0493,1.6401 0.1122,0.6735 -0.059,1.367 0,2.0473 0.6137,7.0605 1.2406,11.7207 3.6874,18.8482 5.846,17.0294 14.6161,34.2157 24.5829,49.1658 9.0078,13.5117 12.4989,17.0662 22.1246,29.4995 13.9593,18.0307 27.9327,35.6565 45.4784,50.395 3.1184,2.6194 6.8982,5.2969 10.6533,6.9658 1.582,0.7031 2.7867,0.4194 4.5075,1.2292 3.9252,1.8471 7.7347,3.942 11.4714,6.1457 3.0676,1.8091 5.9417,3.9341 9.0131,5.7366 30.952,18.1678 65.1172,32.28 100.3809,39.3327 1.5799,0.316 7.1611,-1.893 7.7859,-2.0492 8.4827,-2.1207 15.0286,-4.045 23.3537,-4.5075 7.7252,-0.4292 15.6109,0 23.3538,0 3.9643,0 8.0653,0.4542 11.8824,-0.8182 1.9886,-0.6628 3.7609,-1.7534 5.7347,-2.4582 0.204,-0.073 4.8586,-1.537 5.7367,-2.0493 2.6636,-1.5538 4.5555,-3.9289 6.9658,-5.7366 0.1092,-0.082 0.2725,0 0.4091,0 0.2731,-0.1366 0.579,-0.2216 0.82,-0.4091 7.8291,-6.0893 -4.085,2.1964 8.604,-6.5548 2.0269,-1.3978 4.0412,-2.8207 6.1458,-4.0984 6.2109,-3.771 11.6705,-6.3161 17.208,-11.0623 0.3739,-0.3205 0.881,-0.47 1.2292,-0.8182 1.3974,-1.3974 2.2126,-5.0819 2.8673,-5.7367 1.0111,-1.0109 -0.4917,2.1319 0.411,1.2292 1.7194,-1.7194 2.9101,-3.9018 4.5056,-5.7367 1.5855,-1.8232 3.2448,-3.5812 4.9166,-5.3256 5.0495,-5.2691 10.8851,-9.5698 16.3899,-14.3407 3.0416,-2.636 6.0142,-5.1542 8.193,-8.604 3.241,-5.1316 3.9409,-10.8759 6.1458,-16.388 0.1981,-0.4954 0.7463,1.082 0.82,1.2291 0.061,0.1222 -0.043,0.5387 0,0.4091 2.0826,-6.2475 7.8509,-10.9177 12.2915,-15.5698 5.8058,-6.0823 12.0647,-12.2788 16.799,-19.2553 3.3669,-4.9622 5.081,-7.9792 7.3748,-13.5226 0.6605,-1.5962 1.1508,-3.2592 1.6383,-4.9166 0.1964,-0.6678 0.1,-1.4245 0.411,-2.0472 0.4248,-0.8499 0.096,2.7694 0.8181,2.0472 0.482,-0.4818 1.3337,-3.4835 1.6401,-4.0965 1.8577,-3.7151 4.8168,-7.0753 6.1458,-11.0623 0.4404,-1.3213 0.3777,-2.7752 0.8181,-4.0965 0.1932,-0.5794 0.6056,-1.0683 0.8201,-1.6401 0.6014,-1.6038 0.9959,-3.3107 1.6382,-4.9166 0.458,-1.145 1.247,-1.6879 1.6402,-2.8674 0.8945,-2.6836 0.8487,-6.1184 1.6382,-9.0131 1.2768,-4.6815 2.8474,-9.2476 4.0965,-13.9316 0.2018,-0.7566 1.6401,-4.1487 1.6401,-4.9166 v -1.6382 c 0,-0.1366 0.1366,-0.4091 0,-0.4091 -0.025,0 -1.1425,3.1321 -1.2291,3.2765 -0.3975,0.6624 -1.1766,1.0221 -1.6402,1.6401 -0.5859,0.7814 -1.1172,1.6225 -1.6574,2.4602 -2.4776,0.629 -9.2372,-0.7401 -11.4522,0 -0.4671,0.1557 -0.7887,0.5979 -1.2291,0.8182 -1.8328,0.9163 -3.6748,1.6298 -5.3276,2.8693 -0.4635,0.3477 -0.7109,0.97 -1.2291,1.2291 -0.1222,0.061 -0.2725,0 -0.4091,0 -0.2732,0.1366 -0.566,0.2397 -0.8201,0.4091 -0.8116,-0.041 -0.1931,0.6042 -0.4091,0.8201 -0.3634,0.3635 -1.5354,0.4756 -2.0492,0.8181 -0.7713,0.5142 -5.5038,4.0457 -5.7347,4.5075 -0.1777,0.3553 -0.9836,2.2127 -1.2292,2.4583 -0.097,0.097 -0.3499,-0.1222 -0.411,0 -0.122,0.2443 0.086,0.5609 0,0.8201 -0.426,1.2788 -0.2718,-0.1371 -0.8181,0.4091 -0.4014,0.4015 -0.9317,2.2723 -1.2291,2.8673 -0.2459,0.4916 -0.9853,0.7375 -1.2311,1.2292 -0.061,0.1221 0.097,0.3145 0,0.411 -0.097,0.097 -0.2869,-0.061 -0.4091,0 -0.6391,0.3196 -2.7413,1.9213 -3.2784,2.4583 -0.2159,0.216 -0.1931,0.6022 -0.409,0.8181 -0.3308,0.3308 -4.56,3.1595 -4.9166,3.2784 -0.5183,0.1727 -1.1026,-0.1072 -1.6382,0 -1.1096,0.2219 -2.1635,0.6342 -3.2784,0.82 -1.6721,0.2787 -3.6321,0 -5.3257,0 h -10.6532 c -10.9079,0 -21.734,-0.6201 -32.3669,-3.2783 -2.0858,-0.5215 -4.584,-0.7927 -6.5567,-1.6382 -0.4526,-0.1939 -0.7887,-0.5999 -1.2291,-0.8201 -1.5541,-0.7771 -3.4553,-1.3186 -4.9166,-2.0492 -0.4917,-0.2459 -0.7375,-0.9834 -1.2292,-1.2292 -0.1221,-0.061 -0.3125,0.097 -0.409,0 -0.097,-0.097 0.097,-0.3125 0,-0.409 -0.1932,-0.1931 -0.5758,0.1221 -0.8201,0 -0.1728,-0.086 -0.2363,-0.3228 -0.4091,-0.4091 -0.7455,-0.3728 -2.8815,0 -3.6874,0 -0.9928,0 -4.6216,-0.353 -5.3276,0 -0.4319,0.2159 -2.0029,1.1153 -2.4583,1.2291 -0.265,0.066 -0.559,-0.086 -0.8182,0 -0.1832,0.061 -0.2277,0.348 -0.4109,0.4091 -0.2592,0.086 -0.5591,-0.086 -0.8182,0 -0.3665,0.1221 -0.4536,0.698 -0.8201,0.8201 -0.2591,0.086 -0.5609,-0.086 -0.82,0 -0.1833,0.061 -0.2364,0.3226 -0.4091,0.409 -0.7632,0.3816 -1.7246,0.4533 -2.4583,0.8201 -1.1362,0.5681 -8.3549,-0.5528 -9.4241,-0.8201 -0.7135,-0.1784 -1.3338,-0.6417 -2.0473,-0.82 -0.3975,-0.099 -0.825,0.067 -1.2291,0 -0.852,-0.1421 -1.6064,-0.6762 -2.4583,-0.8182 -1.2156,-0.2026 -2.4719,-0.2084 -3.6875,-0.411 -2.2173,-0.3696 -4.34,-1.6039 -6.5567,-2.0473 -1.1727,-0.2345 -2.2814,-0.3224 -3.2764,-0.82 -0.6068,-0.3033 -1.8061,0.1631 -2.4583,0 -0.8434,-0.2108 -1.6149,-0.6093 -2.4583,-0.8201 -0.7666,-0.1917 -1.715,-0.1614 -2.4583,-0.4091 -0.1832,-0.061 -0.2278,-0.348 -0.411,-0.4091 -1.0089,-0.3363 -1.4893,-0.3355 -2.4583,-0.82 -0.2443,-0.1221 -0.5738,0.1222 -0.8182,0 -0.9466,-0.4733 -1.4976,-0.4999 -2.4582,-0.8201 -0.2898,-0.097 -0.547,-0.2725 -0.8201,-0.4091 -0.5463,-0.2731 -1.0588,-0.6269 -1.6382,-0.8201 -0.7159,-0.2385 -1.3334,-0.1704 -2.0493,-0.409 -0.6515,-0.2172 -1.0157,-0.9179 -1.6382,-1.2292 -0.4393,-0.2197 -1.171,-0.6636 -1.6401,-0.82 -0.2591,-0.086 -0.559,0.086 -0.8182,0 -0.3664,-0.1221 -0.4745,-0.6455 -0.82,-0.8182 -1.4688,-0.7344 -3.0353,-1.313 -4.5075,-2.0492 -0.2418,-0.1209 -0.9538,0 -1.2292,0 -0.1366,0 -0.4091,-0.1366 -0.4091,0 0,0.3053 1.036,0.1932 0.8201,0.4091 -0.3218,0.3218 -2.8201,0 -3.2784,0 -2.1232,0 -5.5129,-0.5199 -7.3748,0.411 -0.5463,0.2732 -1.503,-0.2731 -2.0493,0 -0.1727,0.086 -0.2258,0.3479 -0.409,0.409 -0.5183,0.1728 -1.1102,-0.1325 -1.6402,0 -0.9971,0.2493 -1.8684,0.9794 -2.8673,1.2292 -0.265,0.066 -0.5758,-0.1222 -0.8201,0 -0.1222,0.061 0.097,0.3126 0,0.4091 -0.1932,0.1932 -0.5739,-0.1221 -0.8182,0 -1.069,0.5345 -2.2176,0.6987 -3.2783,1.2291 -0.4342,0.2171 -1.174,-0.1548 -1.6382,0 -1.8956,0.6319 -4.1035,0.4127 -5.7367,1.2291 -0.3278,0.1639 -0.9014,-0.1638 -1.2291,0 -1.5162,0.7581 1.406,0.3513 0,0.8201 -1.473,0.491 -12.2604,0.111 -14.3407,-0.4091 -0.9556,-0.2389 -2.2868,0 -3.2765,0 -1.2005,0 -1.772,-0.045 -2.8693,-0.411 -1.5974,-0.5323 -3.6873,0.4096 -5.3256,0 -2.2336,-0.5582 -4.9917,-1.4711 -6.9658,-2.4582 -0.6042,-0.302 -2.9275,-0.2571 -3.6875,-0.4091 -0.8469,-0.1694 -1.6033,-0.698 -2.4582,-0.8201 -3.7754,-0.5394 -7.6413,-0.4091 -11.4714,-0.4091 -2.1143,0 -4.4609,-0.2991 -6.5548,0 -2.2784,0.3255 -4.3212,1.6022 -6.5568,2.0493 -0.5918,0.1184 -1.0984,0.409 -1.6382,0.409 -0.2731,0 -0.8201,-0.2731 -0.8201,0 0,0.2963 1.6827,0.3665 1.2292,0.8201 -0.2898,0.2898 -3.6093,0.097 -4.0965,0 -0.2995,-0.06 -0.5238,-0.337 -0.8201,-0.411 -2.1851,-0.5463 -4.7807,0.5463 -6.9658,0 -1.4429,-0.3607 -1.4675,-0.1758 -2.8674,-0.4091 -1.1381,-0.1897 -2.1886,-1.0112 -3.2783,-1.2291 -2.2507,0 -0.5167,0.1424 -1.9916,-0.3803 -0.07,-0.2145 -0.1494,-0.5086 -0.3573,-0.6126 -0.1102,-0.055 -0.6017,0.061 -0.6625,0 -0.013,-0.013 0.01,-0.037 0,-0.054 -0.053,-0.1056 -0.1501,-0.1822 -0.2209,-0.2766 -0.6492,-0.1313 -1.1962,-0.5264 -1.7688,-0.8296 -0.6554,-0.3469 -1.3434,-0.6314 -1.9897,-0.9949 -0.2672,-0.1503 -0.5145,-0.334 -0.774,-0.4974 -0.3984,-0.2509 -0.8326,-0.4447 -1.2157,-0.7183 -0.106,-0.076 -0.1715,-0.1994 -0.2765,-0.2765 -0.382,-0.2801 -1.272,-0.7846 -1.7689,-0.8297 -0.831,-0.076 -1.8463,-0.013 -2.608,0.3591 -0.6457,-0.9043 -1.3448,-1.7895 -1.934,-2.6734 -0.6099,-0.9147 -1.6272,-0.8068 -2.0492,-1.2291 -0.164,-0.164 -0.2226,-0.5213 -0.8201,-0.8201 -1.0688,-0.5344 -2.7223,-2.434 -3.2765,-4.0965 -0.3301,-0.9905 -0.6594,-2.0492 -0.411,-2.0492 0.4053,0 1.4785,1.3909 2.0493,0.8201 0.9691,-0.9692 -4.3094,-6.5715 -4.9166,-7.7859 -0.2197,-0.4394 -0.6637,-1.169 -0.8201,-1.6382 -0.086,-0.2591 0.086,-0.561 0,-0.8201 -0.1854,-0.5563 -0.6481,-0.9578 -0.8181,-1.6382 -0.1887,-0.7547 0.2454,-1.7221 0,-2.4583 -0.061,-0.1833 -0.3247,-0.2383 -0.411,-0.411 -0.1134,-0.2267 -0.3488,-1.4571 -0.4091,-1.6382 -0.077,-0.2317 0.1645,-1.0646 0,-1.2292 -0.097,-0.097 -0.348,0.1222 -0.4091,0 -0.3665,-0.3232 0.1832,-0.8626 0,-1.2291 l -1.2291,-2.4583 c -0.2826,-0.5651 -0.8736,-1.1047 -1.2292,-1.6382 -0.1366,-0.2731 -0.2744,-0.547 -0.411,-0.8201 0,-0.1366 0.061,-0.287 0,-0.4091 -0.1727,-0.3455 -0.6454,-0.4746 -0.8181,-0.8201 -0.8435,-1.6868 0.8413,0.4998 0.409,-1.2291 -0.3854,-1.5416 -0.9871,-3.2053 -1.6382,-4.5075 -0.1287,-0.2575 -0.1981,-4.4743 -0.411,-5.3257 -0.1481,-0.5925 -0.67,-1.0457 -0.8181,-1.6382 -0.099,-0.3975 0.1295,-0.8404 0,-1.2291 -0.443,-1.329 -0.9557,-2.731 -1.2292,-4.0985 -0.08,-0.4018 0.099,-0.8317 0,-1.2291 -0.047,-0.1874 -0.3499,-0.2259 -0.411,-0.4091 -0.4305,-1.2917 -0.6642,-3.122 -0.8181,-4.5075 -0.1898,-1.7083 0,-3.6015 0,-5.3257 0,-2.3391 0.1508,-4.7187 -0.411,-6.9658 -0.089,-0.3571 -1.2993,-1.5661 -0.8182,-2.0473 0.6829,-0.6828 0.1353,1.0919 0.8182,0.4091 0.7182,-0.7182 1.0239,-2.0458 1.6401,-2.8674 1.9841,-2.6452 2.7463,-5.9767 4.0965,-9.015 1.1311,-2.5448 2.2368,-5.1802 3.4589,-7.6821 -0.081,-0.4588 -0.076,-0.9424 -0.038,-1.452 0.1413,-1.0003 0.4722,-1.9548 0.8912,-2.8693 0.2016,-0.4256 0.4566,-0.8207 0.699,-1.2233 0.017,-0.038 0.033,-0.077 0.05,-0.1153 v -0.3898 -3.2515 c 0,-0.9764 0.492,-1.4654 0.9852,-1.4654 0.4931,0 0.9872,0.489 0.9872,1.4654 v 1.5479 c 0.088,0.043 0.1673,0.1042 0.2362,0.1806 0.038,-0.1032 0.065,-0.2141 0.1056,-0.315 0.4383,-1.0956 1.3747,-2.1611 1.8226,-3.2496 -0.1021,-0.041 -0.1931,-0.1088 -0.2573,-0.2055 -0.033,-0.05 -0.049,-0.1105 -0.073,-0.1651 -0.01,-0.047 -0.019,-0.093 -0.019,-0.1402 2e-4,-0.2853 0.1773,-0.5142 0.3476,-0.726 0,-0.1039 0.031,-0.2235 0.096,-0.3553 0.024,-0.048 0.048,-0.096 0.071,-0.144 0.1275,-0.2236 0.2743,-0.4338 0.4455,-0.6223 0.013,-0.023 0.012,-0.1132 0.025,-0.1267 0.081,-0.081 0.1191,-0.057 0.1729,-0.071 0.053,-0.047 0.1077,-0.093 0.1651,-0.1364 0.1697,-0.1262 0.3784,-0.2914 0.5954,-0.3937 0.048,-1.133 0.038,-2.4503 -0.1133,-2.6772 -0.1694,-0.2541 -0.5816,-0.2183 -0.8201,-0.4091 -0.4525,-0.362 -0.747,-0.9077 -1.2291,-1.2291 -4.4909,-2.9939 -10.3773,-4.0136 -15.5699,-4.9166 -3.7016,-0.6438 -10.1209,-1.7987 -13.5206,-3.6874 -0.9351,-0.5195 -1.9221,-1.862 -3.0651,-2.2778 2.0511,-1.9339 3.8608,-4.2068 5.9863,-5.7251 0.4569,-0.3263 1.0584,-0.416 1.5076,-0.7529 1.1364,-0.8523 1.9041,-2.1278 3.0133,-3.0152 0.707,-0.5655 1.5264,-0.9731 2.2586,-1.5057 4.0116,-2.9175 7.5161,-6.3427 12.0533,-8.2872 0.4758,-0.2039 1.0229,-0.1947 1.5076,-0.3764 4.5866,-1.72 9.2332,-3.1083 13.9355,-4.519 1.1932,-0.3579 2.2324,-0.3201 3.3916,-0.7548 5.2505,-1.9689 -2.7948,0.5558 3.3898,-1.5057 2.3495,-0.7832 4.97,-1.4225 7.1559,-2.6369 3.9726,-2.207 7.3929,-5.4623 10.9241,-8.2871 1.9031,-1.5225 5.5787,-3.3324 7.5035,-5.5389 0.5726,0.4296 1.1318,0.8865 1.7784,1.185 0.3084,0.1423 2.7384,0.7375 2.975,0.7932 3.2154,0.7566 6.4403,0.8367 9.7198,0.9929 3.6193,0.1723 7.1591,0.4784 10.7109,1.1888 0.391,0.078 2.1285,0.2747 2.5793,0.3976 2.0171,0.5502 3.8328,1.5798 5.752,2.3795 0.386,0.1608 0.8167,0.2106 1.1907,0.3976 1.5109,0.7555 3.0319,1.9392 4.3635,2.9749 0.5219,0.4059 1.1188,0.7232 1.5863,1.1907 0.352,0.352 0.8825,0.9776 1.1908,1.3886 0.2983,0.3978 0.4455,1.0408 0.7932,1.3885 0.1045,0.1045 0.2726,0.1158 0.3956,0.1978 0.4557,0.3038 -0.084,0.1136 0.3975,0.5954 0.2338,0.2337 0.5288,0.3971 0.7932,0.5954 0.8021,0.6016 1.9648,0.9823 2.7771,1.3885 0.62,0.31 2.2963,-0.2715 2.975,0 0.8252,0.3302 1.4915,0.9218 2.3814,1.1888 0.7793,0.2338 1.6846,0.3965 2.5601,0.58 -0.046,2.5324 -0.094,5.0655 0.217,7.5535 0.1376,1.1008 0.1492,0.5001 0.5935,1.3886 0.2831,0.5663 0.9034,2.5459 0.9929,3.1727 0.037,0.2618 -0.037,0.5314 0,0.7932 0.03,0.207 0.1682,0.3885 0.1978,0.5954 0.1029,0.7199 0.026,2.0894 0.1978,2.7771 0.023,0.091 0.1771,0.107 0.1998,0.1978 0.1202,0.3157 -0.08,0.6722 0,0.9929 0.463,1.8521 0.8505,3.9125 1.5863,5.752 0.2766,0.6914 0.4168,1.4675 0.5954,2.1817 0.1157,0.4629 0.5021,0.9223 0.5954,1.3886 0.1045,0.5227 0.4551,2.8367 0.7931,3.1747 0.099,0.099 0.2965,0.099 0.3957,0.1978 0.4104,0.4104 -0.6258,-0.017 0.1997,0.3956 1.4349,0.7174 4.6802,0.3976 6.5452,0.3976 0.5751,0 2.7605,0.2061 3.1727,0 0.5124,-0.2561 2.3223,-0.7339 2.5793,-0.991 0.047,-0.047 -0.047,-0.153 0,-0.1998 0.4104,-0.4104 -0.015,0.6277 0.3976,-0.1978 0.3179,-0.6358 0.7642,-1.3471 1.1888,-1.9839 0.1037,-0.1556 0.3139,-0.2283 0.3976,-0.3956 0.2154,-0.4308 0.2532,-0.9616 0.3956,-1.3886 0.1051,-0.3153 0.4476,-0.6974 0.5954,-0.9929 0.2714,-0.543 0.5343,-1.0686 0.7931,-1.5864 0.059,-0.1183 -0.093,-0.3039 0,-0.3975 0.047,-0.047 0.153,0.047 0.1998,0 0.093,-0.093 -0.042,-0.2703 0,-0.3957 0.1027,-0.3083 0.3321,-0.6756 0.3956,-0.9929 0.6216,-3.1081 0.3976,-6.4705 0.3976,-9.7179 0,-1.4085 0.073,-2.801 -0.1998,-4.1657 -0.1892,-0.9462 0.2337,-2.0402 0,-2.9749 -0.3896,-1.5584 -0.7234,-3.1555 -0.991,-4.761 -0.1085,-0.6509 0.2562,-2.2648 0,-2.7771 -0.063,-0.1269 -0.031,-0.1593 -0.052,-0.2612 0.8824,-0.043 1.7574,-0.1576 2.6311,-0.532 0.787,-0.3373 0.4739,-0.4823 1.1888,-0.9929 0.01,-0.01 0.02,-0.011 0.029,-0.015 1.241,1.2018 2.4326,2.4622 3.7412,3.5837 0.2928,0.2509 0.7184,0.3228 0.991,0.5954 0.1046,0.1046 0.093,0.293 0.1979,0.3976 0.071,0.071 1.1666,0.7691 1.1907,0.7931 0.047,0.047 -0.047,0.1511 0,0.1979 0.093,0.093 0.304,-0.094 0.3975,0 0.099,0.099 0.099,0.2983 0.1979,0.3975 0.1107,0.1108 0.5896,0.2901 0.7931,0.5954 0.1641,0.246 0.1885,0.5841 0.3976,0.7932 0.1045,0.1045 0.2911,0.093 0.3956,0.1978 1.0608,1.0607 3.1715,6.7263 3.3725,8.1335 0.1806,1.264 0,2.6863 0,3.9659 0,1.0197 0.144,2.1666 0,3.1746 -0.126,0.8817 -0.5168,2.1459 -0.7932,2.975 -0.1028,0.3083 -0.3341,0.6736 -0.3975,0.991 -0.1115,0.557 0.07,1.2255 0,1.7861 -0.092,0.7347 -0.2909,1.4482 -0.3957,2.1817 -0.1036,0.7255 0.034,1.2841 -0.1997,1.9839 -0.2116,0.6347 0,3.0193 0,3.7681 0,0.1037 -0.044,2.7334 0,2.7771 0.047,0.047 0.153,-0.047 0.1997,0 0.1309,0.1309 0.2805,0.6358 0.5954,0.7932 0.1183,0.059 0.3021,-0.093 0.3956,0 0.047,0.047 -0.047,0.1511 0,0.1978 0.099,0.099 0.4962,-0.099 0.5954,0 0.047,0.047 -0.047,0.153 0,0.1998 0.1904,0.1904 0.9403,-0.1252 1.1907,0 0.5362,0.2681 0.6799,0.028 1.1888,0.1978 0.089,0.03 0.1111,0.1682 0.1998,0.1978 0.3387,0.1129 1.5397,-0.2445 1.7842,0 0.047,0.047 -0.047,0.153 0,0.1997 0.094,0.093 0.2653,0 0.3975,0 0.7638,0 2.957,0.2044 3.5703,0 0.089,-0.03 0.1142,-0.1579 0.1978,-0.1997 0.1183,-0.059 0.2793,0.059 0.3976,0 0.7758,-0.3879 1.6231,-0.8106 2.3795,-1.1888 1.278,-0.639 2.4323,-3.3817 2.7771,-4.7611 0.1044,-0.4174 0.459,-0.7815 0.5954,-1.1907 0.089,-0.2679 0.077,-0.7496 0.1978,-0.991 0.2093,-0.4186 0.4724,-0.8968 0.5954,-1.3885 0.032,-0.1283 -0.042,-0.2721 0,-0.3976 0.03,-0.089 0.1317,-0.1317 0.1978,-0.1978 0.066,-0.1322 0.1639,-0.2541 0.1997,-0.3976 0.048,-0.1924 -0.063,-0.4071 0,-0.5953 0.02,-0.061 0.1775,-0.7321 0.1978,-0.7932 0.03,-0.089 0.1683,-0.1091 0.1979,-0.1978 0.063,-0.1882 -0.1403,-0.4551 0,-0.5954 0.047,-0.047 0.151,0.047 0.1978,0 0.1258,-0.1258 -0.083,-0.628 0,-0.7932 0.4025,-0.8051 0.3911,-1.7752 0.7932,-2.5793 0.2331,-0.4662 -0.1285,-1.2702 0,-1.7841 0.036,-0.1435 0.1529,-0.2573 0.1997,-0.3976 0.1993,-0.5978 -0.1206,-0.9496 0.1978,-1.5864 0.184,-0.3679 -0.1311,-0.9952 0,-1.3885 0.03,-0.089 0.1683,-0.1091 0.1978,-0.1978 0.084,-0.2509 -0.084,-0.5423 0,-0.7932 0.03,-0.089 0.1702,-0.111 0.1998,-0.1997 0.084,-0.251 -0.064,-0.5367 0,-0.7932 0.036,-0.1435 0.1619,-0.2522 0.1978,-0.3957 0.1196,-0.4784 0.1083,-4.3277 0,-4.761 -0.036,-0.1434 -0.162,-0.2541 -0.1978,-0.3975 -0.048,-0.1925 0.089,-0.4161 0,-0.5935 -0.042,-0.084 -0.1702,-0.111 -0.1998,-0.1997 -0.06,-0.1785 0.06,-0.4169 0,-0.5954 -0.1119,-0.3358 -0.31,-0.6484 -0.3956,-0.991 -0.032,-0.1283 0.042,-0.2702 0,-0.3956 -0.094,-0.2836 -0.7337,-1.291 -0.7932,-1.5883 -0.039,-0.1945 0.039,-0.4009 0,-0.5954 -0.088,-0.4381 -0.597,-1.9872 -0.7932,-2.3795 -0.1322,-0.2645 0.1323,-0.7265 0,-0.991 -0.267,-0.534 -0.071,-0.9325 -0.1997,-1.1908 -0.2409,-0.4818 -0.085,-0.7656 -0.1978,-0.991 -0.042,-0.084 -0.1683,-0.111 -0.1978,-0.1997 -0.06,-0.1785 0.059,-0.4168 0,-0.5954 -0.1808,-0.5423 -0.4146,-1.0439 -0.5954,-1.5863 -0.042,-0.1255 0.059,-0.2774 0,-0.3957 -0.084,-0.1672 -0.3139,-0.2302 -0.3976,-0.3975 -0.3067,-0.6135 -0.9769,-1.546 -1.1888,-2.1817 -0.176,-0.5282 -0.2215,-1.0582 -0.3975,-1.5864 -0.059,-0.1774 -0.3139,-0.2303 -0.3976,-0.3976 -0.059,-0.1182 0.059,-0.2773 0,-0.3956 -0.1155,-0.231 -0.2801,-0.3643 -0.3956,-0.5954 -0.059,-0.1182 0.059,-0.2792 0,-0.3975 -0.2312,-0.4624 -0.3636,-0.925 -0.5954,-1.3886 -0.059,-0.1182 0.059,-0.2773 0,-0.3956 -0.4983,-0.9967 -0.9222,-1.9803 -1.5863,-2.9768 -0.2477,-0.3715 -0.15,-0.6196 -0.3976,-0.991 -0.2458,-0.3688 -0.6568,-0.6261 -0.991,-0.7932 -0.5263,-0.2631 -0.8349,-1.204 -1.3886,-1.3886 -0.1252,-0.042 -0.2721,0.042 -0.3975,0 -0.6191,-0.2063 0.067,-0.133 -0.1978,-0.3975 -0.066,-0.066 -0.6761,-0.3371 -0.7932,-0.3956 -0.2351,-0.1176 -0.6628,-0.8406 -0.8738,-1.2215 0.093,-0.054 0.1871,-0.1123 0.2784,-0.1671 0.075,-0.045 0.7791,-0.3693 0.7932,-0.3975 0.059,-0.1183 -0.036,-0.2685 0,-0.3957 0.2471,-0.8647 0.5088,-1.7261 0.7932,-2.5793 0.1553,-0.4658 0.3335,-0.9276 0.4974,-1.3924 0.8608,0.2689 1.7334,0.5238 2.5831,0.6857 0.633,0.1206 1.6092,-0.032 2.1357,0.1 0.2133,0.053 0.3954,0.2623 0.6107,0.3054 0.1843,0.037 0.424,-0.046 0.6088,0 0.3033,0.076 0.6563,0.2773 0.9161,0.4072 0.1297,0.065 0.2727,0.2605 0.4072,0.3053 0.064,0.021 0.1393,-0.021 0.2036,0 0.1608,0.054 0.2617,0.2182 0.4071,0.3054 0.2277,0.1366 0.478,0.1891 0.7106,0.3054 0.6029,0.3014 1.1139,0.7333 1.7304,1.0178 0.7715,0.3561 1.5722,0.6581 2.3392,1.016 0.2477,0.1156 0.4644,0.2926 0.7126,0.4072 0.4691,0.2165 1.0969,0.2236 1.5249,0.5089 0.4256,0.2838 0.72,0.7981 1.1196,1.1178 0.059,0.047 0.15,0.048 0.2036,0.1018 0.054,0.054 0.048,0.1499 0.1018,0.2035 0.054,0.054 0.1429,0.056 0.2036,0.1018 0.7316,0.5488 -0.2164,-0.1127 0.3034,0.4072 0.054,0.054 0.1429,0.056 0.2036,0.1018 0.314,0.2355 0.6684,0.6064 0.9161,0.9161 0.2592,0.324 0.4403,0.6984 0.7125,1.0159 0.094,0.1092 0.2191,0.1903 0.3054,0.3054 0.047,0.063 0.065,0.2311 0.1018,0.3054 0.1675,0.335 0.3982,0.702 0.6088,1.0178 0.7291,1.0936 -0.5403,-0.7674 0.6107,0.7126 0.8724,1.1215 1.4846,2.318 1.9321,3.6605 0.2925,0.8776 0.504,1.741 0.7125,2.6446 0.078,0.337 0.096,0.7983 0.2036,1.1197 0.03,0.091 0.1733,0.1126 0.2036,0.2036 0.021,0.064 -0.021,0.1392 0,0.2035 0.051,0.1517 0.1673,0.3261 0.2035,0.5071 0.02,0.1 -0.017,0.205 0,0.3053 0.035,0.2115 0.1733,0.3985 0.2036,0.6108 0.1037,0.728 -0.14,0.089 0.1018,0.8143 0.3584,1.0752 0.6413,2.1847 1.016,3.2553 0.2163,0.618 0.4381,1.2357 0.7125,1.8303 0.1145,0.2481 0.3208,0.4531 0.4072,0.7125 0.021,0.064 -0.03,0.1429 0,0.2036 0.1891,0.3782 0.3171,0.9731 0.4071,1.4231 0.026,0.133 -0.027,0.2741 0,0.4071 0.2024,1.012 0.2608,2.0272 0.4072,3.0518 0.097,0.68 0.3101,1.3548 0.4071,2.0338 0.062,0.4316 0.1552,0.8875 0.2036,1.3233 0.113,1.0171 0.034,0.1701 -0.2036,0.4071 -0.034,0.034 0.068,0.066 0.1018,0.1 0.076,0.076 0.026,0.2296 0.1018,0.3054 0.054,0.054 0.1409,0.056 0.2016,0.1017 0.364,0.273 0.627,0.6816 1.0179,0.9161 0.2227,0.1336 0.5723,0.2085 0.8143,0.3054 0.2012,0.081 0.4011,0.253 0.6108,0.3054 0.7969,0.1994 1.4943,0.2036 2.3392,0.2036 0.1055,0 1.1108,0.01 1.1178,0 0.024,-0.024 -0.024,-0.078 0,-0.1018 0.024,-0.024 0.071,0.015 0.1017,0 0.2035,-0.1018 0.3056,-0.4073 0.509,-0.509 0.5369,-0.2684 1.7251,-0.9059 1.932,-1.5268 0.083,-0.2505 0.083,-0.3683 0.2036,-0.6088 0.054,-0.1085 -0.054,-0.2987 0,-0.4072 0.043,-0.086 0.1607,-0.1177 0.2036,-0.2035 0.041,-0.081 -0.041,-0.2241 0,-0.3054 0.094,-0.1883 0.33,-0.4564 0.4072,-0.6107 0.031,-0.062 -0.047,-0.2584 0,-0.3054 0.024,-0.024 0.078,0.024 0.1017,0 0.2105,-0.2105 -0.3215,0.01 0.1018,-0.2036 0.03,-0.015 0.078,0.024 0.1018,0 0.1248,-0.1248 0.7866,-1.2845 0.8143,-1.4231 0.081,-0.4031 0,-0.911 0,-1.3233 0,-0.9386 0.085,-1.9161 0,-2.8481 -0.062,-0.6803 -0.2434,-1.3522 -0.3053,-2.0339 -0.028,-0.3105 0.1065,-1.8208 0,-2.0338 -0.015,-0.03 -0.078,0.024 -0.1018,0 -0.05,-0.05 0.015,-0.3323 0,-0.4072 -0.063,-0.3166 -0.1414,-0.6047 -0.2036,-0.9161 -0.058,-0.2916 0.042,-0.6202 0,-0.9142 -0.015,-0.1061 -0.087,-0.1992 -0.1018,-0.3053 -0.034,-0.235 0.039,-0.4784 0,-0.7125 -0.051,-0.3084 -0.1641,-0.6002 -0.2036,-0.9161 -0.1003,-0.803 -0.2035,-1.6261 -0.2035,-2.4411 0,-0.2551 0.1169,-1.3928 0,-1.6267 -0.082,-0.1642 -0.2656,-0.3097 -0.3054,-0.5089 -0.1689,-0.8446 -0.2414,-1.7141 -0.4072,-2.5428 -0.1012,-0.5059 -0.3921,-1.0081 -0.507,-1.5249 -0.1235,-0.556 -0.2575,-1.08 -0.4071,-1.6286 -0.054,-0.199 -0.01,-0.4265 -0.1018,-0.6107 -0.022,-0.043 -0.087,-0.056 -0.1018,-0.1018 -0.1466,-0.4398 -0.1653,-0.9999 -0.4072,-1.4232 -0.3189,-0.558 -0.7113,-1.0345 -1.1196,-1.5249 -0.3745,-0.4493 -0.6149,-1.0279 -0.9142,-1.5268 -0.1321,-0.2202 -0.1782,-0.5005 -0.3054,-0.7125 -0.049,-0.082 -0.1542,-0.1214 -0.2036,-0.2036 -0.1344,-0.2241 -0.6487,-1.2695 -0.7125,-1.5249 -0.09,-0.358 0.2351,-0.1407 0.2036,-0.2036 -0.1545,-0.3089 -0.5985,-0.5445 -0.8143,-0.8143 -0.2263,-0.2829 -0.241,-0.592 -0.3054,-0.9142 -0.064,-0.3191 -0.3388,-0.584 -0.4052,-0.9161 -0.04,-0.2014 0.075,-0.23 -0.1018,-0.4071 -0.049,-0.049 -0.3366,-0.1506 -0.4072,-0.2036 -0.3357,-0.2518 -0.7791,-0.6817 -1.0179,-1.016 -0.1923,-0.2692 -0.589,-1.2181 -0.7125,-1.5268 -0.1745,-0.4363 -0.4594,-0.741 -0.7106,-1.1178 0.1538,-0.1534 -0.3652,-0.541 -0.4071,-0.6107 -0.7558,-1.2596 0.6592,0.7397 -0.3054,-0.6107 -0.4972,-0.6961 -0.9212,-1.4429 -1.425,-2.1357 -0.5674,-0.78 -1.3002,-1.4134 -1.9321,-2.1356 -0.7879,-0.9005 -1.3052,-2.0132 -2.0339,-2.9499 -0.2212,-0.2845 -0.4779,-0.5407 -0.7125,-0.8144 -0.4903,-0.572 -1.1685,-0.9351 -1.7285,-1.425 -0.6505,-0.5693 -1.2777,-1.166 -1.9339,-1.7285 -0.2936,-0.2516 -0.5996,-0.4878 -0.9142,-0.7125 -0.1234,-0.088 -0.3,-0.096 -0.4072,-0.2036 -0.054,-0.054 -0.06,-0.1386 -0.1018,-0.2016 -0.1043,-0.1566 -0.3503,-0.2486 -0.4071,-0.3054 -0.024,-0.024 0.019,-0.074 0,-0.1018 -0.053,-0.08 -0.1461,-0.1269 -0.2036,-0.2036 -0.091,-0.1213 -0.1126,-0.2858 -0.2036,-0.4071 -0.4274,-0.5699 -0.8418,-1.1957 -1.3213,-1.7285 -1.0672,-1.1858 -2.3023,-2.1811 -3.5607,-3.1535 -0.7099,-0.5486 -1.7284,-1.3395 -2.5428,-1.7304 -1.1942,-0.5733 -2.4891,-0.6058 -3.7796,-0.5973 -0.036,-0.07 -0.088,-0.1431 -0.1037,-0.2055 -0.048,-0.1925 0.048,-0.403 0,-0.5954 -0.023,-0.091 -0.1683,-0.1091 -0.1978,-0.1978 -0.058,-0.1751 0,-0.5848 0,-0.7932 0,-0.682 -0.4335,-1.3843 -0.7932,-1.9839 0.5267,-0.3127 1.2749,-0.4113 1.7842,-0.7932 0.9059,-0.6795 1.9789,-1.3836 2.7771,-2.1817 0.1045,-0.1046 0.095,-0.293 0.1997,-0.3976 0.1045,-0.1045 0.2774,-0.1091 0.3956,-0.1978 0.323,-0.2422 0.6246,-0.8088 0.993,-0.9929 0.059,-0.03 0.151,0.047 0.1978,0 0.047,-0.047 -0.03,-0.1387 0,-0.1978 0.1749,-0.3499 0.712,-0.7121 0.991,-0.991 0.5054,-0.5055 0.9643,-0.7523 1.3885,-1.3886 0.668,-1.002 0,-0.01 0.1998,-0.5954 0.2066,-0.62 0.6825,-1.1221 0.7931,-1.7861 0.4236,-2.5412 0.7052,-6.388 0.1979,-8.9247 -0.1251,-0.6253 -0.5524,-1.3819 -0.7932,-1.9839 -0.686,-1.715 -2.0109,-2.6101 -3.1747,-3.9679 -1.7862,-2.0839 0.4603,0.4455 -0.991,-1.5863 -0.3001,-0.4202 -0.6684,-0.7875 -0.991,-1.1908 -0.6763,-0.8454 -1.55,-1.3601 -2.3814,-1.9839 -0.479,-0.3592 -0.4029,-0.503 -0.7932,-0.991 -0.34,-0.4249 -0.839,-0.6392 -1.1908,-0.991 -0.1045,-0.1045 -0.093,-0.293 -0.1978,-0.3975 -0.1045,-0.1046 -0.2726,-0.1158 -0.3956,-0.1979 -0.7212,-0.4807 -1.2307,-1.3341 -1.9839,-1.7861 -0.1793,-0.1075 -0.4281,-0.072 -0.5954,-0.1978 -0.1183,-0.089 -0.093,-0.293 -0.1978,-0.3975 -0.1046,-0.1046 -0.2793,-0.1091 -0.3976,-0.1978 -0.4172,-0.313 -1.093,-0.9454 -1.3885,-1.3886 -0.082,-0.123 -0.093,-0.2911 -0.1978,-0.3956 -0.043,-0.043 -0.8805,-0.5392 -0.993,-0.5954 -0.5978,-0.2989 -0.9174,-1.1656 -1.5863,-1.3885 -0.1255,-0.042 -0.2674,0.032 -0.3957,0 -0.1956,-0.049 -2.2054,-0.9049 -2.3814,-0.993 -0.7392,-0.3696 -2.1781,-1.2291 -2.9749,-1.3885 -0.1945,-0.039 -0.4009,0.039 -0.5954,0 -1.212,-0.2424 -2.5103,-1.0564 -3.5703,-1.5864 -0.771,-0.3855 -1.8286,-1.7337 -2.5793,-1.9839 -0.1254,-0.042 -0.2673,0.032 -0.3956,0 -0.4699,-0.1175 -1.383,-0.5513 -1.7861,-0.7932 -0.1604,-0.096 -0.222,-0.3262 -0.3956,-0.3956 -0.1842,-0.074 -0.4009,0.039 -0.5954,0 -0.6529,-0.1306 -1.178,-0.7497 -1.7861,-0.9929 -1.4624,-0.585 -2.867,-1.1184 -4.1657,-1.9839 -1.2161,-0.8108 -2.4873,-2.6498 -1.982,-4.1657 0.4789,-1.4367 -0.058,0.314 0.3957,-0.5934 0.2036,-0.4073 0.3757,-0.9493 0.5953,-1.3886 0.2571,-0.5142 0.4747,-1.1105 0.7932,-1.5883 0.1045,-0.1567 0.1724,-0.568 0.1978,-0.5934 0.047,-0.047 0.153,0.047 0.1998,0 0.049,-0.049 0.049,-1.1418 0,-1.1908 -0.1262,-0.1262 -0.54,-0.2709 -0.7932,-0.3975 -0.4287,-0.2144 -0.7491,-0.8231 -0.9929,-1.1888 -0.1819,-0.2729 -0.3064,-0.2049 -0.5954,-0.3976 -0.6103,-0.4069 -0.9761,-1.1795 -1.5864,-1.5864 -0.634,-0.4226 -1.8007,-0.6592 -2.5793,-0.9929 -1.8363,-0.787 -3.6783,-1.479 -5.5522,-2.1817 -1.0579,-0.3967 -2.1641,-0.6836 -3.1747,-1.1888 -0.5579,-0.279 -1.036,-0.6994 -1.5864,-0.9929 -0.4443,-0.237 -0.9452,-0.3567 -1.3885,-0.5954 -1.1438,-0.6159 -2.0378,-1.5501 -3.1747,-2.1817 -1.6379,-0.91 -4.5214,-1.7905 -6.3474,-2.1818 -2.1456,-0.4598 -4.554,-0.6715 -6.743,-0.7932 -0.9902,-0.055 -1.9857,0.071 -2.9749,0 -0.4663,-0.033 -0.9224,-0.1619 -1.3885,-0.1978 -0.6522,-0.05 -1.3106,-0.074 -1.9724,-0.083 z m 118.0441,84.4788 c -0.05,0 -0.093,0.013 -0.1306,0.029 -0.2193,0.094 -0.41,0.244 -0.6146,0.3668 -0.5244,0.1437 -1.2036,-0.1718 -1.7189,0 -0.1765,0.059 -0.3537,0.3556 -0.4897,0.4916 -0.055,0.055 -0.4537,0.3775 -0.4917,0.4917 -0.026,0.078 0.026,0.1659 0,0.2439 -0.037,0.1098 -0.1938,0.1423 -0.2458,0.2458 -0.1467,0.2935 0,1.033 0,1.3502 0,0.5849 -0.096,1.2656 0,1.8418 0.1798,1.0773 0.046,-0.1886 0.2458,0.6126 0.1034,0.4134 0.249,0.8081 0.3688,1.2272 0.2954,1.0344 -0.01,-0.051 0.1229,0.9814 0.054,0.4344 0.2486,0.9296 0.3687,1.3502 0.5321,1.8623 1.5953,3.5593 2.4545,5.2776 0.041,0.082 0.08,0.1639 0.121,0.2459 0.082,0.082 0.1868,0.1468 0.2458,0.2458 0.1939,0.3231 0.2,0.7668 0.3688,1.1043 0.066,0.1319 0.1798,0.2349 0.2458,0.3668 0.048,0.096 0.1386,0.5074 0.2458,0.6146 0.065,0.065 0.1789,0.058 0.2439,0.1229 0.479,0.479 -0.028,0.065 0.1229,0.3668 0.1445,0.2891 0.6153,0.615 0.8604,0.7375 0.5108,0.2558 -0.1307,-0.01 0.1229,0.2458 0.041,0.041 0.3259,0.082 0.3669,0.123 0.061,0.061 0.062,0.1829 0.1229,0.2439 0.041,0.041 0.3277,0.082 0.3687,0.1229 0.029,0.029 -0.029,0.094 0,0.1229 0.078,0.078 2.0309,0.954 2.3316,1.1043 0.1309,0.066 0.3607,-0.065 0.4916,0 0.4413,0.2209 1.0162,0.017 1.2273,0.1229 0.037,0.018 -0.029,0.094 0,0.1229 0.08,0.08 0.8562,0.042 0.9813,0 0.075,-0.025 0.2919,-0.2208 0.3669,-0.2458 0.078,-0.026 0.1668,0.02 0.2458,0 0.3557,-0.089 0.1442,-0.096 0.3687,-0.2458 0.062,-0.2704 0.2531,-0.063 0.3688,-0.121 0.3176,-0.1588 0.5742,-0.5243 0.8585,-0.7375 0.2155,-0.1616 0.5112,-0.2192 0.7355,-0.3687 0.1689,-0.1126 0.1266,-0.188 0.2459,-0.3669 0.1879,-0.2818 0.071,0.052 0.3687,-0.2458 0.1294,-0.1294 0.1165,-0.3623 0.2458,-0.4917 0.065,-0.065 0.1889,-0.05 0.2439,-0.1229 0.078,-0.1035 0.056,-0.2559 0.123,-0.3668 0.06,-0.099 0.1868,-0.1468 0.2458,-0.2458 0.2451,-0.4085 0.3695,-0.9418 0.6146,-1.3502 0.06,-0.099 0.2009,-0.1384 0.2439,-0.2458 0.045,-0.1139 -0.024,-0.2465 0,-0.3668 0.058,-0.2885 0.2967,-0.574 0.3687,-0.8604 0.088,-0.3526 0,-0.861 0,-1.2272 0,-0.3816 0.1182,-0.9955 0,-1.3502 -0.083,-0.2496 -0.2642,-0.5264 -0.3687,-0.7355 -0.052,-0.1035 -0.2069,-0.1361 -0.2439,-0.2459 -0.026,-0.078 0.037,-0.1728 0,-0.2458 -0.018,-0.037 -0.094,0.029 -0.1229,0 -0.061,-0.061 -0.062,-0.1829 -0.123,-0.2439 -0.029,-0.029 -0.094,0.029 -0.1229,0 -0.4789,-0.479 0.028,-0.067 -0.1229,-0.3688 -0.1279,-0.2557 -0.4423,-0.5103 -0.6126,-0.7374 -0.2851,-0.3801 -0.4182,-0.9573 -0.6146,-1.3502 -0.2957,-0.5914 -0.8098,-1.1279 -1.1043,-1.717 -0.037,-0.073 0.058,-0.1878 0,-0.2458 -0.029,-0.029 -0.094,0.029 -0.1229,0 -0.2086,-0.2086 -0.3029,-0.5089 -0.4917,-0.7355 -0.3299,-0.3959 -0.6851,-0.9128 -1.1043,-1.2273 -0.073,-0.055 -0.1789,-0.058 -0.2439,-0.1229 -0.065,-0.065 -0.058,-0.1808 -0.1229,-0.2458 -0.1286,-0.1286 -0.5216,-0.1528 -0.6146,-0.2458 -0.029,-0.029 0.029,-0.094 0,-0.123 -0.058,-0.058 -0.1728,0.037 -0.2458,0 -0.444,-0.2219 -0.9512,-0.6055 -1.4712,-0.7355 -0.2805,-0.07 -0.4609,-0.1076 -0.7375,-0.2459 -0.5275,-0.2637 -1.0697,-0.4724 -1.5959,-0.7355 -0.4743,-0.2371 -0.9689,-0.5701 -1.4712,-0.7375 -0.1426,-0.048 -0.3617,-0.058 -0.4916,-0.1229 -0.052,-0.026 -0.068,-0.1049 -0.1229,-0.1229 -0.1553,-0.052 -0.333,0.04 -0.4917,0 -0.274,-0.069 -0.8712,-0.3017 -1.2176,-0.2728 z m -50.0493,112.634 c -0.082,-0.011 -0.1879,0.035 -0.2746,0.035 -0.8558,0 -0.9989,0.1794 -1.2138,1.039 -0.2386,1.0977 -0.988,1.874 -1.5614,2.7752 -0.2082,0.3272 -0.2997,0.722 -0.5205,1.0409 -0.5604,0.8095 -1.3164,1.4671 -1.9071,2.2547 -1.3199,1.7599 -2.4021,3.6807 -3.8161,5.3775 -0.3566,0.428 -0.8497,0.6769 -1.2138,1.041 -0.179,0.179 -0.2527,0.5035 -0.3476,0.6933 -0.2098,0.4195 -0.6213,0.8025 -0.8681,1.2137 -0.3278,0.5464 -1.2494,2.3994 -1.3866,2.9481 -0.1148,0.4591 0,1.0903 0,1.5614 v 4.3366 c 0,0.3991 -0.086,4.0759 0,4.1618 0.091,0.091 0.232,0.1169 0.3476,0.1747 0.4422,0.2212 1.2506,-0.1209 1.7342,0 0.1255,0.031 0.2203,0.1415 0.3457,0.1729 0.3265,0.082 0.7145,-0.082 1.041,0 0.3565,0.089 0.7451,0.1997 1.0409,0.3476 0.4265,0.2132 1.5833,0 2.0819,0 0.5898,0 1.5261,0.1846 2.0799,0 0.078,-0.026 0.097,-0.1489 0.1748,-0.1748 0.4742,-0.158 0.7109,0.079 1.2138,-0.1728 0.3672,-0.1836 0.9948,0.1306 1.3866,0 0.078,-0.026 0.097,-0.147 0.1748,-0.1729 0.1097,-0.037 0.2335,0.028 0.3457,0 0.3851,-0.096 1.5743,-0.6449 1.909,-0.868 0.3692,-0.2462 0.695,-0.6987 0.8661,-1.041 0.1041,-0.2081 0.4164,-0.3123 0.5205,-0.5204 0.1196,-0.2393 -0.2087,-0.154 0.1748,-0.3457 0.052,-0.026 0.132,0.041 0.1728,0 0.041,-0.041 -0.026,-0.1212 0,-0.1729 0.3301,-0.6601 0.8538,-1.3332 1.041,-2.0819 0.1267,-0.5068 0.2205,-1.0605 0.3457,-1.5614 0.1097,-0.439 0.2072,-0.9655 0.3476,-1.3866 0.026,-0.078 0.147,-0.097 0.1728,-0.1748 0.085,-0.254 -0.065,-0.6061 0,-0.8661 0.2631,-1.0523 0.1748,-2.1814 0.1748,-3.2957 0,-3.0555 0.038,-6.0849 -0.6952,-9.0188 -0.1144,-0.4576 -0.7456,-1.1996 -0.8662,-1.5614 -0.037,-0.1097 0.037,-0.2379 0,-0.3476 -0.1882,-0.5645 -0.8681,-1.5634 -1.2138,-2.0819 -0.505,-0.7575 0.076,0.058 -0.1748,-0.6933 -0.1446,-0.4341 -0.607,-0.998 -0.8661,-1.3867 -0.145,-0.2174 -0.1938,-0.7142 -0.3476,-0.868 -0.087,-0.087 -0.259,-0.086 -0.3457,-0.1729 -0.041,-0.041 0.041,-0.1319 0,-0.1728 -0.021,-0.021 -0.046,-0.031 -0.073,-0.035 z m 182.991,76.474 c -0.6248,0.9686 -1.2613,1.933 -1.9935,2.8117 -0.5139,0.6166 -0.058,-1.2292 0.411,-1.2292 z"
               style="display:inline;fill:#09c9d8;fill-opacity:1;stroke:#022741;stroke-width:0.294995;stroke-opacity:0"
               id="path20-9"
               inkscape:label="wave fill"
               transform="translate(4.0426634e-5)" />
            <path
               class="st3"
               d="m 1608.1,1309.1 c 17.3,0 34.6,0 51.9,0 2.3,0.5 4.6,1.1 6.9,1.5 7.6,1.4 15.5,1.9 22.3,6 5.5,3.3 6.1,5.4 3.6,11.1 -0.3,0.7 -0.4,1.4 -0.7,2.4 1.5,0.6 3,0.9 4.3,1.6 7.3,4 14.9,7.6 21.7,12.3 6,4.1 10.3,10 12.5,17.2 2.6,8.4 0.7,13.9 -6.4,19.1 -0.6,0.4 -1.1,0.9 -2,1.7 1.5,1 2.8,1.8 4,2.6 12.4,7.7 21.8,17.9 27.2,31.6 3.2,8.2 4.7,16.7 4.9,25.4 0.2,5.6 -1.6,8.6 -5.4,9.8 -6,1.9 -10.6,0.2 -13.3,-5.4 -1.3,-2.7 -1.9,-5.7 -2.5,-8.6 -0.7,-3.8 -0.8,-7.8 -1.5,-11.6 -1.5,-8 -8.8,-13.1 -17.6,-12.3 1.9,4.1 3.6,8.1 5.6,12 5.8,11.7 7,24 4.9,36.8 -1.3,7.7 -5.6,13.1 -13.1,15.8 -6.5,2.4 -11.6,-0.2 -12.6,-7.2 -0.5,-3.5 0,-7.2 0.3,-10.8 0.5,-4.9 1.5,-9.7 1.8,-14.5 0.2,-3.7 -4.7,-9 -9.1,-10 0.2,2 0.3,3.8 0.6,5.5 0.6,3.2 1.8,6.3 2,9.6 0.5,7.8 -1.6,14.8 -8.6,19.4 -6.9,4.6 -14.8,1.7 -17.2,-6.2 -0.5,-1.7 -1,-3.4 -1.7,-5 -5.6,-12.8 -17,-19 -32.6,-17.9 -18,1.2 -32.9,9.2 -46,20.7 -15.5,13.6 -25.4,30.4 -25.7,51.2 -0.3,22.2 6.5,43.1 14.8,63.5 0.3,0.7 0.8,1.4 1.4,1.7 8.7,5.2 17.8,8.6 28.3,5.9 4,-1 8.2,-2.1 12.3,-2.4 13.2,-1.1 26.5,-2.8 38.4,6 5.6,4.1 12.6,4.4 19.5,2.8 11,-2.5 22,-5.1 33,-7.7 2.4,-0.6 4.2,-0.9 5.9,1.6 0.7,1 3.2,1.3 4.7,1.1 5.1,-0.8 10.2,-2.2 15.3,-2.9 2.2,-0.3 4.8,0.1 6.8,1 5.9,2.9 11.6,6.3 17.4,9.4 5.2,2.8 10.4,3.1 16,0.7 6.8,-2.8 13.8,-5.2 20.8,-7.5 4.8,-1.6 9.4,-1.1 14.2,1.6 13.4,7.4 28,10.5 43.3,9.8 1.8,-0.1 4.3,-1.3 5.3,-2.7 3.6,-5.2 6.8,-10.6 10,-16 1.8,-3.1 3.3,-6.4 5.1,-10.1 0.7,1.2 1.1,1.9 1.5,2.6 0,4.5 0,9.1 0,13.6 -0.3,0.9 -0.8,1.7 -0.9,2.6 -3.1,28.5 -12.4,55 -29.4,78.3 -36.1,49.3 -85.6,78.7 -144.9,92.7 -6.5,1.5 -13.1,2.5 -19.6,3.8 -17.8,0 -35.6,0 -53.5,0 -5.4,-1 -10.8,-2.2 -16.2,-3.1 -115.3,-20.9 -182.7,-115.5 -191.8,-197.8 -0.5,-4.3 -1.3,-8.5 -2,-12.8 0,-11.6 0,-23.2 0,-34.7 0.3,-0.8 0.7,-1.5 0.8,-2.3 2.9,-33.8 13,-65.5 29.8,-95.1 31.7,-56.1 79,-91.5 143,-104.6 4.2,-1 8.2,-1.9 12.2,-2.8 z m 69.6,320 c 2.3,0.4 5.1,0 7,1.2 10.5,6.4 21.6,6.2 33.2,3.8 3,-0.6 6.4,0.2 9.6,0.3 2.7,0.1 5.7,0.9 8.1,0.2 5.6,-1.7 6.3,-1.9 10.1,2.4 1.5,1.7 2.8,3.6 4.5,5.1 1.7,1.4 3.8,2.4 5.2,3.2 -0.7,-5.7 -1.5,-11 -1.9,-16.4 -0.2,-2.5 1.3,-4.6 4.3,-4.1 4.5,0.7 6.1,-2 7.4,-5.4 0.9,-2.3 2,-4.4 3.2,-7.1 7,6.4 9.3,16.3 19.9,19.6 -1.1,-3 -1.7,-5.1 -2.6,-7.2 -0.9,-2.1 -2.2,-4 -2.9,-6.1 -0.4,-1 0,-3.2 0.3,-3.3 1.3,-0.3 2.8,0 4.2,0.3 0.6,0.2 1.1,1 1.6,1.5 5.3,5.4 11.7,8.8 19.2,10.1 8.5,1.5 17,1 25.3,-1.2 8.1,-2.2 11.9,-9 16,-15.7 -4.6,0.4 -8.9,1.5 -13.1,2.4 -20.8,4.5 -39.7,2.3 -55.1,-15.9 -7.6,4.2 -15.7,8.4 -23.4,13.2 -11.9,7.4 -24.5,13.1 -38.5,14.5 -12.4,1.2 -24.9,1.1 -37.3,1.4 -2.3,0.3 -3.8,0.8 -4.3,3.2 -2.8,0.4 -4.4,-0.2 -6.6,-3.1 -2.5,-3.3 -4.7,-6.9 -7.2,-10.2 -0.8,-1.1 -2.2,-2.1 -3.5,-2.3 -7.7,-1.4 -15.4,-1.1 -23,1.2 -7.4,2.2 -14.9,3.2 -22.6,1.7 -1.2,-0.3 -2.5,-0.5 -4.2,-0.7 2.5,4.7 6.3,6.5 10.8,6.8 8.2,0.7 16.4,1.2 24.9,1.9 0.2,1.4 0.4,2.7 0.5,4.1 0.1,1.4 0,2.8 0.2,4.1 0.5,4.4 3.3,6.1 7.7,5.3 2.4,-0.5 5,-0.1 7.9,-0.1 0,-3 0,-6.7 0,-11.2 9.4,10.8 20.7,17.2 33.3,21.7 14.9,5.3 31.8,8.1 39.2,5.8 -1,-0.3 -1.7,-0.6 -2.4,-0.7 -17.9,-4.5 -35,-11.2 -51.6,-19.2 -2.1,-1.1 -4.2,-2.2 -3.4,-5.1 z m -34.2,25.6 c 5.4,1.7 10.8,3.5 16.3,5 7.4,2 14.8,4.8 22.4,5.4 7,0.6 13.1,2 19,5.6 15.9,9.7 33,13 51.5,9.4 37.1,-7.3 70.5,-22.5 100.8,-44.6 13.5,-9.9 13.7,-9.9 17.8,-25.9 1.4,-5.5 2.1,-11.2 3.1,-16.8 -0.5,-0.2 -1,-0.5 -1.5,-0.7 -2.7,3.1 -5.6,6 -8.1,9.2 -14.1,17.8 -30.5,33.4 -49.1,46.6 -16.5,11.7 -35,17.6 -55,19.1 -19.4,1.5 -38.7,1 -57.9,-1.6 -19,-2.6 -37.4,-7.4 -55.1,-14.4 -18.2,-7.2 -31.2,-20.5 -44.1,-34.5 -19.6,-21.2 -31.8,-45.8 -37.6,-73.8 -0.8,-4.1 -2,-8.1 -3,-12.2 -0.7,1 -0.7,1.9 -0.7,2.8 0.7,33.6 12.8,63.3 32.6,90.1 8.6,11.7 18.7,21.9 31.7,29 5.2,2.9 11,4.7 16.6,7.1 0.2,-0.3 0.4,-0.7 0.6,-1 -0.3,-1 -0.6,-2.1 -0.9,-3.1 0.2,-0.4 0.4,-0.6 0.6,-0.7 z m 42.1,-332.3 c -2.6,-1.1 -5.2,-2.5 -7.9,-3.1 -33.8,-7.4 -67.5,-7.2 -100.5,3.9 -42.6,14.2 -76,40.4 -101.8,76.5 -0.7,1 -1,2.3 -1.5,3.5 0.3,0.3 0.6,0.5 0.8,0.8 1.7,-0.9 3.5,-1.7 5.1,-2.7 1.8,-1.2 3.3,-2.9 5.2,-3.8 1.6,-0.8 3.5,-0.8 5.3,-1.2 0.3,1.7 1,3.4 0.8,5.1 -0.2,2.1 -1.1,4.1 -1.7,6.1 -0.6,1.8 -1.4,3.5 -1.9,5.3 -1.6,5.5 -0.5,7.6 4.9,9.4 5.4,1.8 6.2,3.4 3.9,8.7 -2.2,5.1 -5.1,9.8 -7.2,14.9 -2.1,5.1 -4,10.3 -5.1,15.7 -1.8,8.6 -2.7,17.4 -4.5,26 -4.6,21.9 -4.5,43.7 3.1,64.8 5,13.9 12.2,27 18.4,40.5 1.5,3.2 2.8,6.4 4.2,9.7 1.2,2.9 0.5,5.1 -2,7.2 -6.9,5.9 -10,13.2 -7.8,22.3 2.9,11.6 7.4,22.5 15.2,31.8 9.8,11.6 19.6,23.2 30.1,34.1 17,17.7 36.7,31.4 61,37.6 1,0.2 2,0.3 3.1,0.5 -0.3,-1 -0.8,-1.3 -1.3,-1.6 -39.2,-22.3 -70.7,-52.7 -95.7,-89.8 -3.2,-4.8 -5.6,-10.4 -7.5,-16 -2.6,-7.8 2.4,-13.8 10.6,-13.9 1.8,0 3.7,-0.2 5.9,-0.3 -3.7,-8.6 -7.3,-16.6 -10.5,-24.7 -9.9,-24.7 -19.4,-49.5 -21.4,-76.3 -1.3,-17.3 0.5,-34.2 9.6,-49.6 1.3,-2.2 3,-4.4 5.1,-6 4.6,-3.4 6.9,-2.3 7.2,3.3 0.1,2.6 -0.2,5.3 -0.3,7.9 -0.1,1.7 0,3.4 0,5 0.4,0.1 0.8,0.2 1.2,0.4 0.8,-1.1 1.9,-2.1 2.3,-3.3 4.2,-11.4 10.7,-21.4 18.9,-30.3 16.7,-18.2 38.1,-27.2 62.1,-31 18.8,-3 37.5,-2.9 55.7,3.8 14.8,5.4 25.2,15 28.9,30.5 1.2,5.3 1.2,11 1.9,16.4 0.2,1.7 0.8,4 2,4.7 4.3,2.6 10.4,0.8 12.4,-3.8 1.4,-3.2 2.2,-7.1 1.9,-10.5 -0.4,-4.7 -2.3,-9.2 -3.2,-13.9 -0.4,-2.2 -0.2,-4.6 -0.2,-6.9 2.3,0.2 4.8,0 7,0.7 10.3,3.4 15.8,14 13.5,24.8 -0.8,3.5 -1.5,7.1 -1.7,10.7 -0.1,2.4 0.1,4.9 3.7,5.6 3.4,0.7 6.2,0.3 7.8,-2.8 1.7,-3.2 3.4,-6.6 4.2,-10 3,-13 -0.6,-24.8 -7.2,-36.1 -1.3,-2.3 -2.8,-4.5 -3.7,-7 -1.5,-4.1 3.4,-9.5 7.5,-8.2 15.3,4.6 21.4,12.9 21.8,25.6 0.1,3.7 1.3,7.4 2.6,10.8 0.6,1.6 2.7,2.6 4.3,4 3,-7.1 3.9,-15.2 1.8,-22.2 -5.9,-20.1 -18.7,-34.2 -38.5,-41.8 -7.3,-2.8 -14.9,-5.1 -22.4,-7.6 -7.5,-2.5 -8.6,-4.4 -6.1,-11.6 1,-3 -0.1,-5.1 -2.9,-5.2 -2.6,-0.1 -5.6,0.7 -7.6,2.1 -2.5,1.8 -2.6,5.1 -1.3,8 1.2,2.6 2.6,5 4.1,8.1 -10.7,-4.2 -12.5,-13.4 -4.8,-20.5 5.5,-5.1 13.8,-6.1 20,-1.9 2.9,1.9 5.5,4.5 7.9,7 3.3,3.3 6.1,7.2 9.5,10.3 4.8,4.4 8.9,4.4 14.5,0.5 2.3,-1.6 3.7,-7.2 1.5,-11.1 -2.4,-4.4 -5.6,-8.7 -9.3,-12.1 -10.4,-9.5 -23.4,-13.8 -37,-16.8 -4.5,-1 -8.9,-2.5 -13.8,-3.9 5.7,-6.5 13.5,-2.8 19.8,-7.1 z m -78.8,394.3 c 1.8,1.4 2.6,2.2 3.5,2.8 13.5,8.8 28,15.4 44,18.3 7.1,1.3 14.4,2 21.6,2.7 19.4,1.9 38.8,3.8 58.3,2 6.1,-0.6 11.5,-2.6 17.5,-6.1 -1.7,0 -2.4,0 -3.1,0 -11,-0.3 -22.2,0.2 -33.1,-1 -12.3,-1.4 -24.5,-4.4 -36.7,-6.9 -3.9,-0.8 -7.3,-2.7 -8.6,-8 5.9,-0.4 11.3,-0.8 17.5,-1.3 -1.7,-2.9 -3,-5.2 -4.5,-7.4 -2.6,-3.9 -5.5,-7.6 -7.9,-11.6 -2.9,-4.9 -3.7,-10.3 -1.5,-16.5 2.4,1.9 4.5,3.4 6.4,5.2 2.3,2.2 4.2,4.8 6.6,6.8 8.1,7 17.6,10.9 28.4,11.4 4.4,0.2 5,-1.2 3.1,-5.2 -0.6,-1.3 -0.7,-2.9 -1.1,-4.4 1.7,-0.2 3.5,-0.9 5,-0.4 15,4.5 30.3,5 45.7,4.5 19.9,-0.7 38.7,-5.6 56.2,-14.9 5.5,-2.9 9.7,-7.1 12.7,-12.8 -2.1,0.3 -4,1 -5.8,1.9 -14,7.5 -27.9,14.9 -44.2,16.5 -27.1,2.7 -53.2,1.6 -77.5,-12.9 -13.9,-8.3 -29.6,-12.3 -46.1,-10.7 -13.3,1.3 -26.3,-0.3 -38.9,-3.6 -20.5,-5.4 -35.3,-18.7 -46.9,-35.7 -1.3,-1.9 -2.7,-3.6 -4.1,-5.4 -0.4,0.2 -0.8,0.5 -1.1,0.7 4.4,12 11.5,22.8 18,33.8 -0.5,0.4 -1,0.8 -1.5,1.1 -3.3,-3.2 -7.4,-5.8 -9.6,-9.6 -12.9,-22.3 -22.6,-45.8 -26,-71.5 -0.9,-7.1 -1.9,-14.1 -2.8,-21.2 -0.4,0 -0.9,0 -1.3,0 -0.6,6.7 -1.1,13.5 -1.9,20.2 -0.2,1.4 -1.4,3.3 -2.6,3.8 -1,0.4 -2.9,-0.7 -4.1,-1.5 -0.8,-0.5 -1.2,-1.6 -1.7,-2.4 -4.4,-7.5 -8.7,-15.1 -13,-22.6 -0.7,-1.2 -1.6,-2.3 -2.4,-3.5 -0.5,0.2 -1,0.3 -1.6,0.5 0.4,2.3 0.2,5 1.4,6.7 5.1,6.8 8.4,14.3 11.2,22.2 3.7,10.4 7,21 11.4,31.2 11.5,26.7 26.4,51 49.4,69.8 3,2.5 6.2,4.9 9.2,7.3 2.5,2.1 3.9,4.8 4.7,8.8 -4.9,-2.2 -9.2,-3.6 -12.8,-6 -5.5,-3.6 -10.6,-7.9 -15.6,-12.1 -22,-18.6 -37.2,-41.7 -47.4,-68.3 -0.5,-1.3 -1.5,-2.4 -2.2,-3.6 -0.4,0.2 -0.9,0.4 -1.3,0.5 0.8,2.4 1.7,4.7 2.3,7.1 0.2,0.9 -0.1,2 -0.2,3 -0.9,-0.4 -1.8,-0.7 -2.6,-1.2 -0.6,-0.4 -1.2,-0.9 -2.6,-2.1 1.1,7.2 4.1,12.3 7.6,17.3 3.6,5.2 7.7,10.2 10.4,15.8 5.6,11.5 13.4,21.1 23.1,29.2 17.9,14.8 36.4,28.8 58.3,37.5 2.6,1 5.1,2.5 8.5,4.3 -10,2.1 -18.2,-1.8 -27.7,-2.5 z m 144.9,-109.1 c -4.1,-1.3 -7.9,-2.4 -11.6,-3.6 -9.6,-3.1 -18.3,-7.6 -24.6,-15.8 -0.6,-0.8 -2.6,-0.9 -3.9,-0.6 -15.6,2.9 -31.1,6.6 -46.8,8.6 -25.7,3.3 -50.7,0.1 -74.6,-10.4 -1.1,-0.5 -2.2,-0.9 -3.6,-1.4 0.8,4.5 3.5,6.4 6.8,7.8 12.8,5.7 26.3,7.4 40.1,8 21.2,1 42.2,0.4 62.6,-6.2 2.5,-0.8 5.2,-0.9 7.8,-1.3 -0.2,0.4 -0.3,0.7 -0.5,1.1 2.2,2.1 4.3,4.3 6.6,6.2 1.5,1.2 3.5,1.6 5,2.7 0.9,0.7 1.9,2.6 1.6,3.3 -1.6,2.8 0.3,3.8 2.1,5.1 3.6,2.6 7.3,2.5 10.6,0 3.8,-2.9 7.4,-3 11.7,-1.4 3.5,1.3 7.1,1.1 10.7,-2.1 z m 36.6,109.2 c -10.1,1.2 -19.6,2.4 -29,3.4 -17.3,1.8 -34.5,2.7 -51,-4.4 -2.5,-1.1 -5.5,-0.9 -8.3,-1.3 -0.1,0.4 -0.2,0.8 -0.3,1.2 7.1,5.4 14.8,10.2 23.8,11.6 13.9,2.1 27.8,1.2 41.8,-0.4 8.5,-0.9 16.1,-3.6 23,-10.1 z m -86.4,-341.9 c 0.4,-0.6 0.9,-1.2 1.3,-1.8 -2.7,-3 -5.2,-6.3 -8.2,-9 -2.2,-2 -4,0.2 -5.3,1.8 -1.4,1.7 -2,3.8 0.7,4.9 3.8,1.4 7.7,2.7 11.5,4.1 z"
               id="path28-9"
               style="display:inline;fill:#022741" />
            <path
               class="st3"
               d="m 1713.9,1497.5 c 8.1,9.5 10.2,19.8 7,31.1 -1.7,5.9 -11.6,9.9 -17.1,7.3 -3,-1.4 -6,-7.6 -5.2,-11 0.5,-1.9 1.2,-3.9 2.2,-5.6 4.2,-7.1 8.5,-14.2 13.1,-21.8 z m 0.6,10.5 c -0.2,0.1 -0.5,0.2 -0.6,0.4 -2.4,3.7 -4.9,7.3 -7,11.2 -1.5,2.7 -2.4,5.7 -3.4,8.7 -0.2,0.7 -0.1,1.9 0.4,2.3 2.7,2.7 10.1,1.7 12.4,-1.5 3.5,-5.3 2.6,-16.2 -1.8,-21.1 z"
               id="path29-7"
               style="display:inline;fill:#022741" />
            <path
               class="st3"
               d="m 1757,1388.8 c 11.8,-2.8 21.7,7.1 24.7,15.1 1.5,3.9 -0.5,6.6 -5.6,10.4 -3.4,2.5 -5.7,0.9 -8,-1.2 -1.6,-1.5 -3.3,-3.3 -4.1,-5.3 -2.5,-6.3 -4.6,-12.7 -7,-19 z m 6.6,5 c 2.2,5 4.2,9.8 6.5,14.4 0.7,1.3 2.6,2 3.9,2.9 1.2,-1.8 3.1,-3.4 3.5,-5.4 1.4,-7 -5.3,-11.9 -13.9,-11.9 z"
               id="path30-0"
               style="fill:#022741" />
            <path
               class="st3"
               d="m 1593.5,1660.6 c 1.1,1.6 2.1,3.4 3.5,4.8 10.7,10.1 23.7,16.6 36.7,23.3 2.6,1.3 4.8,3.4 6.6,5.7 -3.9,-1 -7.8,-2 -11.7,-3.1 -9.8,-2.7 -18.3,-7.6 -25.5,-14.5 -4.1,-4 -7.4,-8.8 -11,-13.3 -0.3,-0.4 -0.1,-1.1 -0.2,-1.7 0.5,-0.4 1.1,-0.8 1.6,-1.2 z"
               id="path31-3"
               style="display:inline;fill:#022741" />
            <path
               class="st3"
               d="m 1642.9,1655.2 c -0.6,-0.4 -1.2,-0.8 -1.7,-1.1 0.2,-0.3 0.4,-0.5 0.5,-0.8 0.6,0.4 1.2,0.9 1.8,1.3 -0.2,0.2 -0.4,0.4 -0.6,0.6 z"
               id="path32-9"
               style="display:inline;fill:#022741" />
          </g>
        </g>
      </g>
      <g
         id="g36"
         transform="matrix(1.3362314,0,0,1.3362314,167.4575,1634.4374)">
        <g
           id="g35">
          <path
             class="st3"
             d="m 1418.7,1464.2 c -0.6,10.4 -0.3,20.7 0.9,31 0.9,7.5 12.1,7.9 12,0 -0.1,-10.9 0.2,-21.9 1,-32.8 0.4,-5.1 0.9,-10.3 1.4,-15.4 0.3,-3 0.7,-6 1.1,-8.9 0.1,-0.9 0.2,-5.1 1.1,-5.7 -3,-1.7 -6,-3.5 -9,-5.2 -2.4,31.3 -7.2,62.3 -14.3,92.8 3.9,0 7.7,0 11.6,0 -0.7,-4.4 2.2,-10 3.4,-14.1 1.3,-4.3 2.6,-8.7 3.9,-13 2.8,-9.3 5.6,-18.6 8.5,-27.9 -3.9,-1.1 -7.7,-2.1 -11.6,-3.2 -5.1,22.9 -8.9,46 -11.4,69.4 3.9,-0.5 7.9,-1.1 11.8,-1.6 -2.8,-12.2 0.5,-24.4 4,-36.1 3.7,-12.2 6.9,-24.4 9.6,-36.8 5.2,-23.3 10.6,-47 25.2,-66.5 4.6,-6.2 -5.8,-12.2 -10.4,-6.1 -15.6,20.7 -21.3,46.4 -26.9,71.2 -2.9,13 -6.6,25.7 -10.3,38.5 -3.7,12.8 -6,25.8 -3,39 1.6,7.1 11.1,4.7 11.8,-1.6 2.4,-22.3 6.1,-44.3 11,-66.2 1.7,-7.5 -9.3,-10.6 -11.6,-3.2 -3.2,10.5 -6.4,21.1 -9.6,31.6 -2.9,9.4 -7.8,19.8 -6.2,29.8 0.9,5.9 10.3,5.5 11.6,0 7.4,-31.6 12.3,-63.7 14.7,-96 0.3,-4.6 -5.3,-7.4 -9,-5.2 -4.8,2.9 -5.9,7.6 -6.6,12.9 -0.9,6.6 -1.7,13.2 -2.4,19.8 -1.3,13.4 -1.8,26.9 -1.7,40.4 4,0 8,0 12,0 -1.2,-10.3 -1.5,-20.6 -0.9,-31 0.7,-7.7 -11.3,-7.6 -11.7,0.1 z"
             id="path34-8"
             style="fill:#022741" />
        </g>
      </g>
      <g
         id="g38"
         transform="matrix(1.3362314,0,0,1.3362314,167.4575,1634.4374)">
        <g
           id="g37">
          <path
             class="st3"
             d="m 1529.1,1328.3 c -23.9,3 -36,23.2 -51.9,38.6 2.8,2.8 5.7,5.7 8.5,8.5 8.2,-10.1 18.1,-18.2 29.7,-24.3 -2.4,-3.1 -4.8,-6.3 -7.3,-9.4 -25.1,19.8 -47.7,43.1 -59.8,73.2 -2.9,7.2 8.7,10.3 11.6,3.2 11.3,-27.9 33.5,-49.6 56.7,-67.9 5.6,-4.4 -1.5,-12.4 -7.3,-9.4 -12.4,6.4 -23.3,15.3 -32.1,26.1 -4.8,5.9 2.8,14 8.5,8.5 12.7,-12.3 24.2,-32.7 43.4,-35.1 7.5,-1 7.6,-13 0,-12 z"
             id="path36-6"
             style="fill:#022741" />
        </g>
      </g>
      <g
         id="g40"
         transform="matrix(1.3362314,0,0,1.3362314,167.4575,1634.4374)">
        <g
           id="g39">
          <path
             class="st3"
             d="m 1878.2,1575.3 c 1,12.5 -4,24.3 -4.4,36.7 -0.3,7.7 11.7,7.7 12,0 0.4,-12.4 5.5,-24.2 4.4,-36.7 -0.6,-7.7 -12.6,-7.7 -12,0 z"
             id="path38-5"
             style="fill:#022741" />
        </g>
      </g>
      <g
         id="g42"
         transform="matrix(1.3362314,0,0,1.3362314,167.4575,1634.4374)">
        <g
           id="g41">
          <path
             class="st3"
             d="m 1883.8,1578.7 c 7.7,0 7.7,-12 0,-12 -7.7,0 -7.7,12 0,12 z"
             id="path40-7"
             style="fill:#022741" />
        </g>
      </g>
      <g
         id="g44"
         transform="matrix(1.3362314,0,0,1.3362314,167.4575,1634.4374)">
        <g
           id="g43">
          <path
             class="st3"
             d="m 1886.3,1577.8 c 7.7,0 7.7,-12 0,-12 -7.7,0 -7.7,12 0,12 z"
             id="path42-6"
             style="fill:#022741" />
        </g>
      </g>
      <g
         id="g46"
         transform="matrix(1.3362314,0,0,1.3362314,167.4575,1634.4374)">
        <g
           id="g45">
          <path
             class="st3"
             d="m 1887.5,1576.4 c 2.1,-1.4 4.1,-2.8 6.2,-4.2 2.6,-1.8 4,-5.4 2.2,-8.2 -1.7,-2.6 -5.4,-4 -8.2,-2.2 -2.1,1.4 -4.1,2.8 -6.2,4.2 -2.6,1.8 -4,5.4 -2.2,8.2 1.7,2.7 5.4,4.1 8.2,2.2 z"
             id="path44-2"
             style="fill:#022741" />
        </g>
      </g>
      <g
         id="g48"
         transform="matrix(1.3362314,0,0,1.3362314,167.4575,1634.4374)">
        <g
           id="g47">
          <path
             class="st3"
             d="m 1895.9,1582.1 c 7.7,0 7.7,-12 0,-12 -7.7,0 -7.7,12 0,12 z"
             id="path46-7"
             style="fill:#022741" />
        </g>
      </g>
      <g
         id="g50"
         transform="matrix(1.3362314,0,0,1.3362314,167.4575,1634.4374)">
        <g
           id="g49">
          <path
             class="st3"
             d="m 1539.5,1335.7 c 15.8,-8.2 32.5,-17.1 50.2,-19.8 7.6,-1.2 4.4,-12.7 -3.2,-11.6 -18.6,2.8 -36.5,12.5 -53.1,21 -6.8,3.6 -0.7,14 6.1,10.4 z"
             id="path48-0"
             style="fill:#022741" />
        </g>
      </g>
      <g
         id="g52"
         transform="matrix(1.3362314,0,0,1.3362314,161.08996,1635.3807)">
        <g
           id="g51">
          <path
             class="st3"
             d="m 1653.4,1305.4 c 0.3,-3.7 -0.1,-7.3 -0.8,-11 -0.8,-3.9 -5.6,-5.4 -8.8,-3.6 -8.3,4.6 -17.9,3.9 -27,3 -11,-1.1 -21.9,-2.1 -33,-2.2 -4,0 -8.6,-0.6 -11.5,2.8 -2.6,3.1 -2.5,7.7 0.1,10.7 3,3.6 7.9,3.8 12.3,4.3 5.7,0.7 11.5,1.1 17.2,1.2 6.7,0.1 8.3,-10.3 1.6,-11.8 -5.4,-1.2 -10.9,-1.6 -16.4,-1.1 -7.7,0.7 -7.7,11.3 0,12 6.6,0.6 13.1,0.8 19.7,0.7 0,-4 0,-8 0,-12 -7.1,0.1 -13.9,1.4 -20.4,4.2 -5.7,2.4 -5.8,12 1.6,11.8 18.1,-0.4 35.8,-5.7 54,-5.3 3.5,0.1 7.3,-4 5.8,-7.6 -3,-7.3 -8.3,-12.6 -16,-14.8 -7.4,-2.1 -10.6,9.5 -3.2,11.6 3.4,0.9 6.3,3 7.6,6.4 1.9,-2.5 3.9,-5.1 5.8,-7.6 -18.2,-0.4 -35.9,4.9 -54,5.3 0.5,3.9 1.1,7.9 1.6,11.8 5.6,-2.3 11.1,-3.6 17.2,-3.7 7.7,-0.1 7.7,-12.1 0,-12 -6.6,0.1 -13.2,-0.1 -19.7,-0.7 0,4 0,8 0,12 4.5,-0.4 8.8,-0.3 13.2,0.7 0.5,-3.9 1.1,-7.9 1.6,-11.8 -4.5,-0.1 -9,-0.3 -13.4,-0.8 -1.8,-0.2 -4.2,-0.9 -6,-0.8 -3.1,-1 -4.3,1.1 -3.6,6.5 0.7,0 1.3,0 2,0 4,1 9.6,0.1 13.7,0.3 4.2,0.2 8.5,0.5 12.7,0.9 14.4,1.4 29.2,3.7 42.5,-3.6 -2.9,-1.2 -5.9,-2.4 -8.8,-3.6 0.6,2.6 0.6,5.1 0.4,7.8 -0.6,7.7 11.4,7.6 12,0 z"
             id="path50-3"
             style="fill:#022741" />
        </g>
      </g>
      <g
         id="g54"
         transform="matrix(1.3362314,0,0,1.3362314,167.4575,1634.4374)">
        <g
           id="g53">
          <path
             class="st3"
             d="m 1648.8,1302.2 c 7.3,1 13.8,4.3 18.1,10.5 2.7,-2.7 5.5,-5.5 8.2,-8.2 -8.8,-4.2 -18,-6.3 -27.8,-5.8 -7.7,0.3 -7.7,12.3 0,12 7.6,-0.3 14.8,0.9 21.7,4.2 4.9,2.3 12,-2.8 8.2,-8.2 -6,-8.6 -14.8,-14.6 -25.3,-16 -3.2,-0.4 -6.4,0.8 -7.4,4.2 -0.6,2.7 1.1,6.9 4.3,7.3 z"
             id="path52-9"
             style="fill:#022741" />
        </g>
      </g>
      <g
         id="yolk-9"
         style="display:inline"
         transform="matrix(1.3362314,0,0,1.3362314,167.4575,1634.4374)">
        <path
           class="st7"
           d="m 1657.1,1781.7 c -140.6,0 -254.7,-113.9 -254.7,-254.6 0,-140.7 113.9,-254.7 254.6,-254.7 140.6,0 254.7,113.9 254.7,254.6 0,67.5 -26.8,132.3 -74.6,180.1 -47.7,47.9 -112.5,74.8 -180,74.6 z"
           id="path26-9"
           style="clip-rule:evenodd;fill:none;fill-rule:evenodd" />
        <path
           class="st3"
           d="m 1657.1,1292.3 c 129.5,0 234.6,105.1 234.6,234.7 0,129.6 -105,234.7 -234.6,234.7 -129.6,0 -234.6,-105.1 -234.6,-234.7 0,-129.6 105,-234.7 234.6,-234.7 m 0,-40 c -151.2,0.2 -273.6,122.9 -273.4,274 0.2,151.1 122.9,273.6 274,273.4 151.2,-0.2 273.6,-122.9 273.4,-274 -0.1,-109.9 -65.9,-209 -167.1,-251.8 -33.9,-14.3 -70.2,-21.6 -106.9,-21.6 z"
           id="path27-9"
           style="fill:#022741" />
        <path
           id="highlight-7"
           class="st8"
           d="m 1516.3,1397.3 c -52.8,57.6 -55.2,146.3 -38.6,149.1 15.9,2.6 39.6,-62.3 88.3,-110.4 45.8,-45.3 104.9,-69 104.9,-82.8 0,-13.8 -100.4,-14.9 -154.6,44.1 z"
           style="clip-rule:evenodd;display:none;fill:#09c9d8;fill-rule:evenodd" />
      </g>
    </g>
  </g>
</svg>
