<?xml version="1.0" encoding="UTF-8" standalone="no"?>
<svg
   viewBox="0 0 30.281 36.454"
   version="1.1"
   id="svg4"
   sodipodi:docname="ico_goldenEgg.svg"
   xml:space="preserve"
   inkscape:version="1.3.2 (091e20e, 2023-11-25)"
   xmlns:inkscape="http://www.inkscape.org/namespaces/inkscape"
   xmlns:sodipodi="http://sodipodi.sourceforge.net/DTD/sodipodi-0.dtd"
   xmlns="http://www.w3.org/2000/svg"
   xmlns:svg="http://www.w3.org/2000/svg"><defs
     id="defs4" /><sodipodi:namedview
     id="namedview4"
     pagecolor="#505050"
     bordercolor="#ffffff"
     borderopacity="1"
     inkscape:showpageshadow="0"
     inkscape:pageopacity="0"
     inkscape:pagecheckerboard="1"
     inkscape:deskcolor="#505050"
     inkscape:zoom="10.763412"
     inkscape:cx="0.60389772"
     inkscape:cy="17.652395"
     inkscape:window-width="1600"
     inkscape:window-height="943"
     inkscape:window-x="29"
     inkscape:window-y="107"
     inkscape:window-maximized="0"
     inkscape:current-layer="svg4" /><path
     d="M 15.139703,34.950452 C 23.595602,35.147762 30.370231,28.173986 28.81102,18.581029 27.434437,10.12146 21.39582,1.499455 15.139703,1.499455 c -6.2561153,0 -12.293814,8.622005 -13.6694806,17.081574 -1.56012866,9.592957 5.2145013,16.566733 13.6703986,16.369423 z"
     style="display:inline;fill:#3d89cb;fill-opacity:1;stroke:#0e1530;stroke-width:2.43799;stroke-dasharray:none;stroke-opacity:1"
     id="path1" /><path
     d="M 21.984,7.734 A 0.42,0.42 0 0 0 22.33,7.069 C 20.78,4.865 15.646,-1.141 9.361,5.235 L 9.3,5.301 C 7.582,6.829 6.04,9.061 5.127,11.637 3.186,17.114 4.48,21.76 7.785,22.931 c 3.305,1.172 8.42,-2.123 10.362,-7.6 0.725,-2.043 0.945,-4.06 0.77,-5.849 -0.08,-0.818 0.483,-1.56 1.301,-1.647 0.66,-0.07 1.258,-0.11 1.766,-0.101 z"
     style="display:none;fill:#fab413"
     id="path2" /><path
     d="M 7.3717276,29.516789 C 7.0991641,29.422244 6.897265,29.768244 7.112012,29.96005 c 2.0520283,1.830857 7.141719,5.399879 13.087646,2.356711 6.533266,-3.343265 6.772794,-10.720838 5.875262,-14.55233 -0.06608,-0.282659 -0.477217,-0.260634 -0.515762,0.02753 -0.359746,2.679749 -1.774877,8.70919 -7.294062,11.178783 -4.76665,2.132786 -8.9175111,1.231584 -10.8933684,0.546044 z"
     style="display:inline;fill:#224c87;fill-opacity:1;stroke-width:0.917722"
     id="path3" /><path
     d="m 7.5989696,10.4182 c 0,0 0.639653,-3.6066507 4.3334874,-5.8165273 3.693835,-2.2098766 4.100386,1.6583253 2.122692,2.7338963 -1.977693,1.0755712 -3.906747,0.079843 -6.4561794,3.082631 z"
     style="display:inline;fill:#66c5fa;fill-opacity:1;stroke-width:0.917722"
     id="path4" /><path
     d="m 6.777751,18.61263 c 0,-2.093301 1.6986834,-3.791983 3.791986,-3.791983 1.006141,0 1.970473,0.399842 2.681305,1.110677 l 1.889458,1.886845 1.886845,-1.886845 c 0.713446,-0.710835 1.677778,-1.110677 2.683919,-1.110677 2.093301,0 3.791987,1.698682 3.791987,3.791983 v 0.776168 c 0,2.095913 -1.698686,3.794595 -3.791987,3.794595 -1.006141,0 -1.970473,-0.399842 -2.681305,-1.110676 L 15.1405,20.185871 13.253655,22.072717 c -0.713445,0.710834 -1.677777,1.110676 -2.683918,1.110676 -2.0933026,0 -3.791986,-1.698682 -3.791986,-3.791982 v -0.77617 z m 7.178898,0.38939 -1.886845,-1.886845 c -0.397231,-0.39723 -0.938197,-0.62198 -1.500067,-0.62198 -1.1707869,0 -2.1194361,0.94865 -2.1194361,2.119435 v 0.776168 c 0,1.170785 0.9486492,2.119434 2.1194361,2.119434 0.56187,0 1.102836,-0.222137 1.500067,-0.621981 z m 2.365089,0 1.886845,1.886845 c 0.397231,0.39723 0.938198,0.62198 1.50007,0.62198 1.170784,0 2.119434,-0.948651 2.119434,-2.119434 v -0.77617 c 0,-1.170785 -0.94865,-2.119433 -2.119434,-2.119433 -0.561872,0 -1.102839,0.222137 -1.50007,0.621982 l -1.884231,1.88423 z"
     id="path1-9"
     style="fill:#0e1530;fill-opacity:1;stroke:#0e1530;stroke-width:0.288179;stroke-dasharray:none;stroke-opacity:1" /><rect
     style="fill:#0e1530;fill-opacity:1;stroke:#0e1530;stroke-width:0.3;stroke-dasharray:none;stroke-opacity:1"
     id="rect8"
     width="0.55620366"
     height="0.81794661"
     x="12.088887"
     y="34.855507"
     transform="rotate(-4)" /></svg>
