<?xml version="1.0" encoding="UTF-8" standalone="no"?>
<svg
   viewBox="0 0 512 512"
   version="1.1"
   id="svg1"
   sodipodi:docname="cog-solid copy.svg"
   inkscape:version="1.3.2 (091e20e, 2023-11-25)"
   xmlns:inkscape="http://www.inkscape.org/namespaces/inkscape"
   xmlns:sodipodi="http://sodipodi.sourceforge.net/DTD/sodipodi-0.dtd"
   xmlns="http://www.w3.org/2000/svg"
   xmlns:svg="http://www.w3.org/2000/svg">
  <defs
     id="defs1" />
  <sodipodi:namedview
     id="namedview1"
     pagecolor="#505050"
     bordercolor="#ffffff"
     borderopacity="1"
     inkscape:showpageshadow="0"
     inkscape:pageopacity="0"
     inkscape:pagecheckerboard="1"
     inkscape:deskcolor="#505050"
     inkscape:zoom="0.26829296"
     inkscape:cx="227.3634"
     inkscape:cy="301.90878"
     inkscape:window-width="1312"
     inkscape:window-height="449"
     inkscape:window-x="0"
     inkscape:window-y="0"
     inkscape:window-maximized="0"
     inkscape:current-layer="svg1" />
  <!--!Font Awesome Free 6.7.2 by @fontawesome - https://fontawesome.com License - https://fontawesome.com/license/free Copyright 2025 Fonticons, Inc.-->
  <path
     d="m 255.32422,8.0996094 c -18.34989,0.05 -36.47394,2.1000236 -53.92383,5.9999996 C 195.90043,15.299602 192,20.200815 192,25.800781 V 75 c -22.19987,7.899953 -42.80089,19.799701 -60.80078,35.09961 L 88.699219,85.5 C 83.799248,82.700017 77.700368,83.600806 73.900391,87.800781 49.200538,114.50062 30.299152,146.70061 19.199219,182.40039 c -1.699991,5.39997 0.600029,11.20001 5.5,14 L 67.300781,221 c -4.299973,23.19986 -4.299973,46.99935 0,70.19922 l -42.601562,24.60156 c -4.899971,2.79999 -7.099991,8.60004 -5.5,14 11.099933,35.59979 30.001319,67.79977 54.701172,94.59961 3.799977,4.09998 9.998857,5.09881 14.798828,2.29883 l 42.601561,-24.59961 c 17.89989,15.3999 38.49896,27.29966 60.79883,35.09961 v 49.20117 c 0,5.59997 3.90043,10.49923 9.40039,11.69922 36.69978,8.19995 74.29942,7.79995 109.19922,0 5.49996,-1.19999 9.40039,-6.09925 9.40039,-11.69922 v -49.20117 c 22.19987,-7.89995 42.80089,-19.79971 60.80078,-35.09961 L 423.5,426.69922 c 4.89998,2.79998 11.00081,1.90115 14.80078,-2.29883 24.69986,-26.69984 43.59929,-58.89982 54.69922,-94.59961 1.49999,-5.49996 -0.69963,-11.30158 -5.59961,-14.10156 l -42.59961,-24.59961 c 4.29998,-23.19986 4.29998,-46.99936 0,-70.19922 l 42.59961,-24.59961 c 4.89998,-2.79998 7.09999,-8.60003 5.5,-14 -11.09993,-35.59978 -30.00132,-67.80173 -54.70117,-94.601561 -3.79998,-4.099976 -9.99885,-5.098812 -14.79883,-2.298828 L 380.80078,110 C 362.90089,94.600092 342.29987,82.700344 320,74.900391 v -49.09961 c 0,-5.599966 -3.90043,-10.501179 -9.40039,-11.701172 -18.34989,-4.0999746 -36.9255,-6.0499994 -55.27539,-5.9999996 z m -89.56836,127.5683606 60.21094,45.1582 v 29.21094 l 50.14257,50.14258 c 13.07685,-6.44435 29.30587,-4.32696 40.17188,6.53906 l 55.08203,55.08398 c 6.82066,6.82067 6.82066,17.92137 0,24.78907 l -24.78906,24.78906 c -6.82065,6.8677 -17.92137,6.8677 -24.78906,0 l -55.08399,-55.08203 c -10.86602,-10.86601 -12.93441,-27.09503 -6.53711,-40.17188 l -50.14453,-50.14453 h -29.21094 l -45.1582,-60.20898 z m 142.32226,0.0391 c 5.70937,-0.0537 11.42588,0.60848 17,1.98438 4.28055,1.0819 5.78427,6.39737 2.67969,9.50195 l -34.99609,34.99609 5.31445,31.93946 31.93945,5.3164 34.99805,-34.99804 c 3.10458,-3.10458 8.42022,-1.64563 9.45508,2.58789 5.5506,22.29648 -0.37664,46.85125 -17.82813,64.30273 -6.11507,6.11507 -13.17135,10.62931 -20.60351,13.875 l -9.125,-9.125 c -9.40781,-9.40781 -21.92039,-14.58203 -35.23242,-14.58203 -3.8572,0 -7.80898,0.47149 -11.61914,1.36523 l -38.61914,-38.61914 c -0.32927,-17.63963 5.97474,-35.3263 19.38086,-48.73242 13.05333,-13.05333 30.12777,-19.65154 47.25585,-19.8125 z m -91.94335,117.69922 26.67187,26.67187 c -2.30491,9.92524 -1.22341,20.13338 2.35156,29.49415 l -58.14062,58.14062 c -11.75976,11.75975 -30.81056,11.75975 -42.57031,0 -11.75975,-11.75976 -11.75975,-30.81251 0,-42.57227 z"
     style="fill:#ffffff"
     id="path4" />
</svg>
